%TF.GenerationSoftware,KiCad,Pcbnew,(6.0.7-1)-1*%
%TF.CreationDate,2024-09-17T13:20:57+05:30*%
%TF.ProjectId,DIY_BMS,4449595f-424d-4532-9e6b-696361645f70,rev?*%
%TF.SameCoordinates,Original*%
%TF.FileFunction,Copper,L2,Bot*%
%TF.FilePolarity,Positive*%
%FSLAX46Y46*%
G04 Gerber Fmt 4.6, Leading zero omitted, Abs format (unit mm)*
G04 Created by KiCad (PCBNEW (6.0.7-1)-1) date 2024-09-17 13:20:57*
%MOMM*%
%LPD*%
G01*
G04 APERTURE LIST*
G04 Aperture macros list*
%AMRoundRect*
0 Rectangle with rounded corners*
0 $1 Rounding radius*
0 $2 $3 $4 $5 $6 $7 $8 $9 X,Y pos of 4 corners*
0 Add a 4 corners polygon primitive as box body*
4,1,4,$2,$3,$4,$5,$6,$7,$8,$9,$2,$3,0*
0 Add four circle primitives for the rounded corners*
1,1,$1+$1,$2,$3*
1,1,$1+$1,$4,$5*
1,1,$1+$1,$6,$7*
1,1,$1+$1,$8,$9*
0 Add four rect primitives between the rounded corners*
20,1,$1+$1,$2,$3,$4,$5,0*
20,1,$1+$1,$4,$5,$6,$7,0*
20,1,$1+$1,$6,$7,$8,$9,0*
20,1,$1+$1,$8,$9,$2,$3,0*%
G04 Aperture macros list end*
%TA.AperFunction,ComponentPad*%
%ADD10R,1.700000X1.700000*%
%TD*%
%TA.AperFunction,ComponentPad*%
%ADD11O,1.700000X1.700000*%
%TD*%
%TA.AperFunction,ComponentPad*%
%ADD12R,1.000000X1.000000*%
%TD*%
%TA.AperFunction,ComponentPad*%
%ADD13C,2.400000*%
%TD*%
%TA.AperFunction,ComponentPad*%
%ADD14O,2.400000X2.400000*%
%TD*%
%TA.AperFunction,SMDPad,CuDef*%
%ADD15R,1.700000X0.650000*%
%TD*%
%TA.AperFunction,SMDPad,CuDef*%
%ADD16RoundRect,0.250000X0.450000X-0.350000X0.450000X0.350000X-0.450000X0.350000X-0.450000X-0.350000X0*%
%TD*%
%TA.AperFunction,SMDPad,CuDef*%
%ADD17RoundRect,0.250000X-0.350000X-0.450000X0.350000X-0.450000X0.350000X0.450000X-0.350000X0.450000X0*%
%TD*%
%TA.AperFunction,SMDPad,CuDef*%
%ADD18RoundRect,0.250000X-0.475000X0.337500X-0.475000X-0.337500X0.475000X-0.337500X0.475000X0.337500X0*%
%TD*%
%TA.AperFunction,SMDPad,CuDef*%
%ADD19RoundRect,0.150000X-0.587500X-0.150000X0.587500X-0.150000X0.587500X0.150000X-0.587500X0.150000X0*%
%TD*%
%TA.AperFunction,SMDPad,CuDef*%
%ADD20RoundRect,0.250000X0.337500X0.475000X-0.337500X0.475000X-0.337500X-0.475000X0.337500X-0.475000X0*%
%TD*%
%TA.AperFunction,SMDPad,CuDef*%
%ADD21RoundRect,0.250000X-0.450000X0.350000X-0.450000X-0.350000X0.450000X-0.350000X0.450000X0.350000X0*%
%TD*%
%TA.AperFunction,SMDPad,CuDef*%
%ADD22RoundRect,0.150000X-0.150000X0.825000X-0.150000X-0.825000X0.150000X-0.825000X0.150000X0.825000X0*%
%TD*%
%TA.AperFunction,ViaPad*%
%ADD23C,0.800000*%
%TD*%
%TA.AperFunction,Conductor*%
%ADD24C,0.250000*%
%TD*%
%TA.AperFunction,Conductor*%
%ADD25C,0.350000*%
%TD*%
G04 APERTURE END LIST*
D10*
%TO.P,TH1,1*%
%TO.N,3V3*%
X149347000Y-106426000D03*
D11*
%TO.P,TH1,2*%
%TO.N,Net-(J3-Pad5)*%
X151887000Y-106426000D03*
%TD*%
D10*
%TO.P,J1,1,Pin_1*%
%TO.N,+BATT*%
X127101600Y-99999800D03*
D11*
%TO.P,J1,2,Pin_2*%
%TO.N,GND*%
X127101600Y-102539800D03*
%TD*%
D10*
%TO.P,J2,1,Pin_1*%
%TO.N,Net-(J2-Pad1)*%
X155966000Y-106426000D03*
D11*
%TO.P,J2,2,Pin_2*%
%TO.N,Net-(J2-Pad2)*%
X158506000Y-106426000D03*
%TO.P,J2,3,Pin_3*%
%TO.N,Net-(J2-Pad3)*%
X161046000Y-106426000D03*
%TO.P,J2,4,Pin_4*%
%TO.N,Net-(J2-Pad4)*%
X163586000Y-106426000D03*
%TD*%
D12*
%TO.P,GND,1,1*%
%TO.N,GND*%
X144272000Y-93472000D03*
%TD*%
D10*
%TO.P,J3,1,Pin_1*%
%TO.N,Net-(D3-Pad2)*%
X165593000Y-90165000D03*
D11*
%TO.P,J3,2,Pin_2*%
%TO.N,3V3*%
X165593000Y-92705000D03*
%TO.P,J3,3,Pin_3*%
%TO.N,Net-(J3-Pad3)*%
X163053000Y-90165000D03*
%TO.P,J3,4,Pin_4*%
%TO.N,Net-(J3-Pad4)*%
X163053000Y-92705000D03*
%TO.P,J3,5,Pin_5*%
%TO.N,Net-(J3-Pad5)*%
X160513000Y-90165000D03*
%TO.P,J3,6,Pin_6*%
%TO.N,GND*%
X160513000Y-92705000D03*
%TD*%
D13*
%TO.P,R1,1*%
%TO.N,Net-(C2-Pad1)*%
X132842000Y-99599800D03*
D14*
%TO.P,R1,2*%
%TO.N,Net-(Q1-Pad3)*%
X193802000Y-99599800D03*
%TD*%
D15*
%TO.P,U3,1,~{RESET}/PB5*%
%TO.N,Net-(J3-Pad5)*%
X141384000Y-100711000D03*
%TO.P,U3,2,XTAL1/PB3*%
%TO.N,Net-(C4-Pad1)*%
X141384000Y-99441000D03*
%TO.P,U3,3,XTAL2/PB4*%
%TO.N,Net-(Q1-Pad1)*%
X141384000Y-98171000D03*
%TO.P,U3,4,GND*%
%TO.N,GND*%
X141384000Y-96901000D03*
%TO.P,U3,5,AREF/PB0*%
%TO.N,Net-(J3-Pad4)*%
X148684000Y-96901000D03*
%TO.P,U3,6,PB1*%
%TO.N,Net-(D3-Pad2)*%
X148684000Y-98171000D03*
%TO.P,U3,7,PB2*%
%TO.N,Net-(J3-Pad3)*%
X148684000Y-99441000D03*
%TO.P,U3,8,VCC*%
%TO.N,3V3*%
X148684000Y-100711000D03*
%TD*%
D16*
%TO.P,R7,1*%
%TO.N,Net-(Q1-Pad1)*%
X185928000Y-100314000D03*
%TO.P,R7,2*%
%TO.N,GND*%
X185928000Y-98314000D03*
%TD*%
D17*
%TO.P,R5,1*%
%TO.N,+BATT*%
X129810000Y-96520000D03*
%TO.P,R5,2*%
%TO.N,Net-(C4-Pad1)*%
X131810000Y-96520000D03*
%TD*%
D18*
%TO.P,C5,1*%
%TO.N,3V3*%
X161544000Y-98276500D03*
%TO.P,C5,2*%
%TO.N,GND*%
X161544000Y-100351500D03*
%TD*%
D19*
%TO.P,Q1,1,G*%
%TO.N,Net-(Q1-Pad1)*%
X188290500Y-100364000D03*
%TO.P,Q1,2,D*%
%TO.N,GND*%
X188290500Y-98464000D03*
%TO.P,Q1,3,S*%
%TO.N,Net-(Q1-Pad3)*%
X190165500Y-99414000D03*
%TD*%
D18*
%TO.P,C4,1*%
%TO.N,Net-(C4-Pad1)*%
X130128800Y-99038500D03*
%TO.P,C4,2*%
%TO.N,GND*%
X130128800Y-101113500D03*
%TD*%
D20*
%TO.P,C6,1*%
%TO.N,3V3*%
X146833500Y-102870000D03*
%TO.P,C6,2*%
%TO.N,GND*%
X144758500Y-102870000D03*
%TD*%
D21*
%TO.P,R6,1*%
%TO.N,Net-(C4-Pad1)*%
X135890000Y-99076000D03*
%TO.P,R6,2*%
%TO.N,GND*%
X135890000Y-101076000D03*
%TD*%
D12*
%TO.P,TP1,1,1*%
%TO.N,Net-(C4-Pad1)*%
X133858000Y-96520000D03*
%TD*%
D22*
%TO.P,U2,1,VDD1*%
%TO.N,3V3*%
X163703000Y-97855000D03*
%TO.P,U2,2,VOA*%
%TO.N,Net-(J3-Pad4)*%
X164973000Y-97855000D03*
%TO.P,U2,3,VIB*%
%TO.N,Net-(J3-Pad3)*%
X166243000Y-97855000D03*
%TO.P,U2,4,GND1*%
%TO.N,GND*%
X167513000Y-97855000D03*
%TO.P,U2,5,GND2*%
%TO.N,Net-(J2-Pad4)*%
X167513000Y-102805000D03*
%TO.P,U2,6,VOB*%
%TO.N,Net-(J2-Pad3)*%
X166243000Y-102805000D03*
%TO.P,U2,7,VIA*%
%TO.N,Net-(J2-Pad2)*%
X164973000Y-102805000D03*
%TO.P,U2,8,VDD2*%
%TO.N,Net-(J2-Pad1)*%
X163703000Y-102805000D03*
%TD*%
D23*
%TO.N,GND*%
X137400000Y-93000000D03*
X157250000Y-93450000D03*
X140450000Y-105950000D03*
X146360000Y-93507500D03*
%TO.N,3V3*%
X153200000Y-100750000D03*
X150750000Y-100750000D03*
X161550000Y-98250000D03*
X154550000Y-100750000D03*
X151950000Y-100750000D03*
X164100000Y-95950000D03*
X156100000Y-100750000D03*
%TO.N,Net-(D3-Pad2)*%
X151150000Y-96350000D03*
%TO.N,Net-(J3-Pad3)*%
X167400000Y-95800000D03*
%TO.N,Net-(J3-Pad4)*%
X164800299Y-95050299D03*
%TO.N,Net-(J3-Pad5)*%
X143002000Y-99822000D03*
X145700000Y-95300000D03*
%TO.N,Net-(Q1-Pad1)*%
X181610000Y-100330000D03*
X143764000Y-98298000D03*
%TO.N,Net-(Q1-Pad3)*%
X141850000Y-103500000D03*
X143800000Y-104550000D03*
%TD*%
D24*
%TO.N,3V3*%
X163703000Y-96347000D02*
X164100000Y-95950000D01*
X163703000Y-97855000D02*
X163703000Y-96347000D01*
D25*
%TO.N,Net-(C4-Pad1)*%
X141384000Y-99441000D02*
X140859000Y-99441000D01*
X135890000Y-98552000D02*
X133858000Y-96520000D01*
X140859000Y-99441000D02*
X140494000Y-99076000D01*
X140494000Y-99076000D02*
X135890000Y-99076000D01*
X135890000Y-99076000D02*
X135890000Y-98552000D01*
D24*
X130128800Y-98725200D02*
X130128800Y-99038500D01*
X131810000Y-96520000D02*
X133858000Y-96520000D01*
X131810000Y-96520000D02*
X131810000Y-97044000D01*
X131810000Y-97044000D02*
X130128800Y-98725200D01*
%TO.N,Net-(D3-Pad2)*%
X164338000Y-94488000D02*
X164338000Y-91420000D01*
X151150000Y-96350000D02*
X151488000Y-96012000D01*
X164338000Y-91420000D02*
X165593000Y-90165000D01*
X151150000Y-96350000D02*
X149329000Y-98171000D01*
X151488000Y-96012000D02*
X162814000Y-96012000D01*
X149329000Y-98171000D02*
X148684000Y-98171000D01*
X162814000Y-96012000D02*
X164338000Y-94488000D01*
%TO.N,Net-(J2-Pad1)*%
X158492000Y-103900000D02*
X162608000Y-103900000D01*
X155966000Y-106426000D02*
X158492000Y-103900000D01*
X162608000Y-103900000D02*
X163703000Y-102805000D01*
%TO.N,Net-(J2-Pad2)*%
X160282000Y-104650000D02*
X164950000Y-104650000D01*
X158506000Y-106426000D02*
X160282000Y-104650000D01*
X164950000Y-104650000D02*
X164973000Y-104627000D01*
X164973000Y-104627000D02*
X164973000Y-102805000D01*
%TO.N,Net-(J2-Pad3)*%
X162222000Y-105250000D02*
X165450000Y-105250000D01*
X166243000Y-104457000D02*
X166243000Y-102805000D01*
X161046000Y-106426000D02*
X162222000Y-105250000D01*
X165450000Y-105250000D02*
X166243000Y-104457000D01*
%TO.N,Net-(J2-Pad4)*%
X166424000Y-106426000D02*
X167513000Y-105337000D01*
X167513000Y-105337000D02*
X167513000Y-102805000D01*
X163586000Y-106426000D02*
X166424000Y-106426000D01*
%TO.N,Net-(J3-Pad3)*%
X167400000Y-95800000D02*
X166243000Y-96957000D01*
X165160751Y-99314000D02*
X166243000Y-98231751D01*
X148811000Y-99314000D02*
X165160751Y-99314000D01*
X166243000Y-96957000D02*
X166243000Y-97855000D01*
X166243000Y-98231751D02*
X166243000Y-97855000D01*
X148684000Y-99441000D02*
X148811000Y-99314000D01*
%TO.N,Net-(J3-Pad4)*%
X149860000Y-95504000D02*
X161544000Y-95504000D01*
X163053000Y-93995000D02*
X163053000Y-92705000D01*
X148684000Y-96680000D02*
X149860000Y-95504000D01*
X161544000Y-95504000D02*
X163053000Y-93995000D01*
X148684000Y-96901000D02*
X148684000Y-96680000D01*
X164800299Y-95050299D02*
X164973000Y-95223000D01*
X164973000Y-95223000D02*
X164973000Y-97855000D01*
%TO.N,Net-(J3-Pad5)*%
X161688000Y-91340000D02*
X160513000Y-90165000D01*
X161688000Y-93328000D02*
X161688000Y-91340000D01*
X141384000Y-100711000D02*
X142113000Y-100711000D01*
X142113000Y-100711000D02*
X143002000Y-99822000D01*
X145700000Y-95300000D02*
X146004000Y-94996000D01*
X146004000Y-94996000D02*
X160020000Y-94996000D01*
X160020000Y-94996000D02*
X161688000Y-93328000D01*
%TO.N,Net-(Q1-Pad1)*%
X181626000Y-100314000D02*
X181610000Y-100330000D01*
X143764000Y-98298000D02*
X141511000Y-98298000D01*
X141511000Y-98298000D02*
X141384000Y-98171000D01*
X185928000Y-100314000D02*
X181626000Y-100314000D01*
%TO.N,Net-(Q1-Pad3)*%
X143800000Y-104550000D02*
X142900000Y-104550000D01*
X142900000Y-104550000D02*
X141850000Y-103500000D01*
%TD*%
%TA.AperFunction,Conductor*%
%TO.N,3V3*%
G36*
X150200000Y-107174000D02*
G01*
X150179998Y-107242121D01*
X150126342Y-107288614D01*
X150074000Y-107300000D01*
X148626000Y-107300000D01*
X148557879Y-107279998D01*
X148511386Y-107226342D01*
X148500000Y-107174000D01*
X148500000Y-103600000D01*
X146376000Y-103600000D01*
X146307879Y-103579998D01*
X146261386Y-103526342D01*
X146250000Y-103474000D01*
X146250000Y-102150000D01*
X150200000Y-102150000D01*
X150200000Y-107174000D01*
G37*
%TD.AperFunction*%
%TD*%
%TA.AperFunction,Conductor*%
%TO.N,3V3*%
G36*
X147524557Y-100170002D02*
G01*
X147531981Y-100175160D01*
X147587295Y-100216615D01*
X147723684Y-100267745D01*
X147785866Y-100274500D01*
X149582134Y-100274500D01*
X149644316Y-100267745D01*
X149780705Y-100216615D01*
X149836001Y-100175173D01*
X149902505Y-100150326D01*
X149911564Y-100150000D01*
X157874000Y-100150000D01*
X157942121Y-100170002D01*
X157988614Y-100223658D01*
X158000000Y-100276000D01*
X158000000Y-103443905D01*
X157979998Y-103512026D01*
X157963095Y-103533000D01*
X157933000Y-103563095D01*
X157870688Y-103597121D01*
X157843905Y-103600000D01*
X146376000Y-103600000D01*
X146307879Y-103579998D01*
X146261386Y-103526342D01*
X146250000Y-103474000D01*
X146250000Y-100276000D01*
X146270002Y-100207879D01*
X146323658Y-100161386D01*
X146376000Y-100150000D01*
X147456436Y-100150000D01*
X147524557Y-100170002D01*
G37*
%TD.AperFunction*%
%TD*%
%TA.AperFunction,Conductor*%
%TO.N,3V3*%
G36*
X163992121Y-96870002D02*
G01*
X164038614Y-96923658D01*
X164050000Y-96976000D01*
X164050000Y-98554500D01*
X164029998Y-98622621D01*
X163976342Y-98669114D01*
X163924000Y-98680500D01*
X160926000Y-98680500D01*
X160857879Y-98660498D01*
X160811386Y-98606842D01*
X160800000Y-98554500D01*
X160800000Y-96976000D01*
X160820002Y-96907879D01*
X160873658Y-96861386D01*
X160926000Y-96850000D01*
X163924000Y-96850000D01*
X163992121Y-96870002D01*
G37*
%TD.AperFunction*%
%TD*%
%TA.AperFunction,Conductor*%
%TO.N,GND*%
G36*
X167850000Y-100950000D02*
G01*
X160800000Y-100950000D01*
X160800000Y-99947500D01*
X165081984Y-99947500D01*
X165093167Y-99948027D01*
X165100660Y-99949702D01*
X165108586Y-99949453D01*
X165108587Y-99949453D01*
X165168737Y-99947562D01*
X165172696Y-99947500D01*
X165200607Y-99947500D01*
X165204542Y-99947003D01*
X165204607Y-99946995D01*
X165216444Y-99946062D01*
X165248702Y-99945048D01*
X165252721Y-99944922D01*
X165260640Y-99944673D01*
X165280094Y-99939021D01*
X165299451Y-99935013D01*
X165311681Y-99933468D01*
X165311682Y-99933468D01*
X165319548Y-99932474D01*
X165326919Y-99929555D01*
X165326921Y-99929555D01*
X165360663Y-99916196D01*
X165371893Y-99912351D01*
X165406734Y-99902229D01*
X165406735Y-99902229D01*
X165414344Y-99900018D01*
X165421163Y-99895985D01*
X165421168Y-99895983D01*
X165431779Y-99889707D01*
X165449527Y-99881012D01*
X165468368Y-99873552D01*
X165504138Y-99847564D01*
X165514058Y-99841048D01*
X165545286Y-99822580D01*
X165545289Y-99822578D01*
X165552113Y-99818542D01*
X165566434Y-99804221D01*
X165581468Y-99791380D01*
X165591445Y-99784131D01*
X165597858Y-99779472D01*
X165622239Y-99750000D01*
X167200000Y-99750000D01*
X167200000Y-96895904D01*
X167245904Y-96850000D01*
X167850000Y-96850000D01*
X167850000Y-100950000D01*
G37*
%TD.AperFunction*%
%TD*%
%TA.AperFunction,Conductor*%
%TO.N,Net-(Q1-Pad3)*%
G36*
X194942121Y-98420002D02*
G01*
X194988614Y-98473658D01*
X195000000Y-98526000D01*
X195000000Y-100674000D01*
X194979998Y-100742121D01*
X194926342Y-100788614D01*
X194874000Y-100800000D01*
X190526000Y-100800000D01*
X190457879Y-100779998D01*
X190411386Y-100726342D01*
X190400000Y-100674000D01*
X190400000Y-99700000D01*
X189576000Y-99700000D01*
X189507879Y-99679998D01*
X189461386Y-99626342D01*
X189450000Y-99574000D01*
X189450000Y-99226000D01*
X189470002Y-99157879D01*
X189523658Y-99111386D01*
X189576000Y-99100000D01*
X190400000Y-99100000D01*
X190400000Y-98526000D01*
X190420002Y-98457879D01*
X190473658Y-98411386D01*
X190526000Y-98400000D01*
X194874000Y-98400000D01*
X194942121Y-98420002D01*
G37*
%TD.AperFunction*%
%TD*%
%TA.AperFunction,Conductor*%
%TO.N,GND*%
G36*
X195033621Y-88278502D02*
G01*
X195080114Y-88332158D01*
X195091500Y-88384500D01*
X195091500Y-97772359D01*
X195071498Y-97840480D01*
X195017842Y-97886973D01*
X194947569Y-97897077D01*
X194878448Y-97887139D01*
X194878441Y-97887138D01*
X194874000Y-97886500D01*
X190526000Y-97886500D01*
X190522654Y-97886860D01*
X190522649Y-97886860D01*
X190420215Y-97897872D01*
X190420208Y-97897873D01*
X190416851Y-97898234D01*
X190413551Y-97898952D01*
X190413550Y-97898952D01*
X190367790Y-97908906D01*
X190367785Y-97908907D01*
X190364509Y-97909620D01*
X190304921Y-97929453D01*
X190274735Y-97939500D01*
X190260343Y-97944290D01*
X190137388Y-98023308D01*
X190135396Y-98025034D01*
X190069317Y-98049679D01*
X190060330Y-98050000D01*
X189250000Y-98050000D01*
X189250000Y-98614269D01*
X189229998Y-98682390D01*
X189194531Y-98717857D01*
X189194774Y-98718181D01*
X189192519Y-98719869D01*
X189192123Y-98720265D01*
X189187388Y-98723308D01*
X189133732Y-98769801D01*
X189130785Y-98773202D01*
X189130780Y-98773207D01*
X189089899Y-98820387D01*
X189083770Y-98826970D01*
X189053547Y-98857193D01*
X189048006Y-98866562D01*
X189045286Y-98871161D01*
X189043764Y-98873629D01*
X189038018Y-98880261D01*
X189034275Y-98888455D01*
X189031921Y-98892119D01*
X188978266Y-98938613D01*
X188925922Y-98950000D01*
X187350000Y-98950000D01*
X187350000Y-99060500D01*
X187329998Y-99128621D01*
X187276342Y-99175114D01*
X187224000Y-99186500D01*
X185326000Y-99186500D01*
X185322654Y-99186860D01*
X185322649Y-99186860D01*
X185220215Y-99197872D01*
X185220208Y-99197873D01*
X185216851Y-99198234D01*
X185213551Y-99198952D01*
X185213550Y-99198952D01*
X185167790Y-99208906D01*
X185167785Y-99208907D01*
X185164509Y-99209620D01*
X185060343Y-99244290D01*
X184937388Y-99323308D01*
X184933993Y-99326250D01*
X184933990Y-99326252D01*
X184923246Y-99335562D01*
X184883732Y-99369801D01*
X184880792Y-99373194D01*
X184793919Y-99473450D01*
X184793917Y-99473453D01*
X184788018Y-99480261D01*
X184784276Y-99488455D01*
X184784272Y-99488461D01*
X184730209Y-99606843D01*
X184683716Y-99660498D01*
X184615596Y-99680500D01*
X182301203Y-99680500D01*
X182233082Y-99660498D01*
X182222210Y-99652196D01*
X182221253Y-99651134D01*
X182066752Y-99538882D01*
X182060724Y-99536198D01*
X182060722Y-99536197D01*
X181898319Y-99463891D01*
X181898318Y-99463891D01*
X181892288Y-99461206D01*
X181798887Y-99441353D01*
X181711944Y-99422872D01*
X181711939Y-99422872D01*
X181705487Y-99421500D01*
X181514513Y-99421500D01*
X181508061Y-99422872D01*
X181508056Y-99422872D01*
X181421113Y-99441353D01*
X181327712Y-99461206D01*
X181321682Y-99463891D01*
X181321681Y-99463891D01*
X181159278Y-99536197D01*
X181159276Y-99536198D01*
X181153248Y-99538882D01*
X180998747Y-99651134D01*
X180994326Y-99656044D01*
X180994325Y-99656045D01*
X180954797Y-99699946D01*
X180870960Y-99793056D01*
X180834896Y-99855521D01*
X180781792Y-99947500D01*
X180775473Y-99958444D01*
X180716458Y-100140072D01*
X180715768Y-100146633D01*
X180715768Y-100146635D01*
X180706598Y-100233886D01*
X180696496Y-100330000D01*
X180697186Y-100336565D01*
X180714863Y-100504749D01*
X180716458Y-100519928D01*
X180775473Y-100701556D01*
X180870960Y-100866944D01*
X180875378Y-100871851D01*
X180875379Y-100871852D01*
X180974981Y-100982471D01*
X180998747Y-101008866D01*
X181059152Y-101052753D01*
X181146573Y-101116268D01*
X181153248Y-101121118D01*
X181159276Y-101123802D01*
X181159278Y-101123803D01*
X181310417Y-101191094D01*
X181327712Y-101198794D01*
X181417608Y-101217902D01*
X181508056Y-101237128D01*
X181508061Y-101237128D01*
X181514513Y-101238500D01*
X181705487Y-101238500D01*
X181711939Y-101237128D01*
X181711944Y-101237128D01*
X181802392Y-101217902D01*
X181892288Y-101198794D01*
X181909583Y-101191094D01*
X182060722Y-101123803D01*
X182060724Y-101123802D01*
X182066752Y-101121118D01*
X182073428Y-101116268D01*
X182160848Y-101052753D01*
X182221253Y-101008866D01*
X182238971Y-100989188D01*
X182299414Y-100951950D01*
X182332605Y-100947500D01*
X184606117Y-100947500D01*
X184674238Y-100967502D01*
X184720731Y-101021158D01*
X184725669Y-101033710D01*
X184740784Y-101079122D01*
X184744290Y-101089657D01*
X184823308Y-101212612D01*
X184826250Y-101216007D01*
X184826252Y-101216010D01*
X184844551Y-101237128D01*
X184869801Y-101266268D01*
X184873194Y-101269208D01*
X184973450Y-101356081D01*
X184973453Y-101356083D01*
X184980261Y-101361982D01*
X184988459Y-101365726D01*
X184999633Y-101370829D01*
X185113210Y-101422698D01*
X185136964Y-101429673D01*
X185177008Y-101441431D01*
X185177012Y-101441432D01*
X185181331Y-101442700D01*
X185185780Y-101443340D01*
X185185786Y-101443341D01*
X185321553Y-101462861D01*
X185321558Y-101462861D01*
X185326000Y-101463500D01*
X188024000Y-101463500D01*
X188027346Y-101463140D01*
X188027351Y-101463140D01*
X188129785Y-101452128D01*
X188129792Y-101452127D01*
X188133149Y-101451766D01*
X188136450Y-101451048D01*
X188182210Y-101441094D01*
X188182215Y-101441093D01*
X188185491Y-101440380D01*
X188289657Y-101405710D01*
X188412612Y-101326692D01*
X188418382Y-101321693D01*
X188451101Y-101293341D01*
X188466268Y-101280199D01*
X188486380Y-101256988D01*
X188546104Y-101218604D01*
X188581604Y-101213500D01*
X188874000Y-101213500D01*
X188877346Y-101213140D01*
X188877351Y-101213140D01*
X188979785Y-101202128D01*
X188979792Y-101202127D01*
X188983149Y-101201766D01*
X188986450Y-101201048D01*
X189032210Y-101191094D01*
X189032215Y-101191093D01*
X189035491Y-101190380D01*
X189139657Y-101155710D01*
X189262612Y-101076692D01*
X189278862Y-101062612D01*
X189312875Y-101033139D01*
X189316268Y-101030199D01*
X189326828Y-101018012D01*
X189406079Y-100926552D01*
X189406080Y-100926550D01*
X189411982Y-100919739D01*
X189436093Y-100866944D01*
X189439375Y-100859758D01*
X189445534Y-100847962D01*
X189483110Y-100784424D01*
X189483110Y-100784423D01*
X189487145Y-100777601D01*
X189489498Y-100769504D01*
X189511966Y-100692166D01*
X189533562Y-100617831D01*
X189534239Y-100609237D01*
X189536307Y-100582958D01*
X189536307Y-100582950D01*
X189536500Y-100580502D01*
X189536500Y-100348500D01*
X189556502Y-100280379D01*
X189610158Y-100233886D01*
X189662500Y-100222500D01*
X189760500Y-100222500D01*
X189828621Y-100242502D01*
X189875114Y-100296158D01*
X189886500Y-100348500D01*
X189886500Y-100674000D01*
X189886860Y-100677346D01*
X189886860Y-100677351D01*
X189897729Y-100778447D01*
X189898234Y-100783149D01*
X189909620Y-100835491D01*
X189944290Y-100939657D01*
X190023308Y-101062612D01*
X190026250Y-101066007D01*
X190026252Y-101066010D01*
X190052485Y-101096284D01*
X190069801Y-101116268D01*
X190073194Y-101119208D01*
X190173450Y-101206081D01*
X190173453Y-101206083D01*
X190180261Y-101211982D01*
X190313210Y-101272698D01*
X190327160Y-101276794D01*
X190377008Y-101291431D01*
X190377012Y-101291432D01*
X190381331Y-101292700D01*
X190385780Y-101293340D01*
X190385786Y-101293341D01*
X190521553Y-101312861D01*
X190521558Y-101312861D01*
X190526000Y-101313500D01*
X194874000Y-101313500D01*
X194877346Y-101313140D01*
X194877351Y-101313140D01*
X194917297Y-101308845D01*
X194952033Y-101305111D01*
X195021900Y-101317717D01*
X195073862Y-101366095D01*
X195091500Y-101430389D01*
X195091500Y-108265500D01*
X195071498Y-108333621D01*
X195017842Y-108380114D01*
X194965500Y-108391500D01*
X125184500Y-108391500D01*
X125116379Y-108371498D01*
X125069886Y-108317842D01*
X125058500Y-108265500D01*
X125058500Y-103500000D01*
X140936496Y-103500000D01*
X140937186Y-103506565D01*
X140950737Y-103635491D01*
X140956458Y-103689928D01*
X141015473Y-103871556D01*
X141018776Y-103877278D01*
X141018777Y-103877279D01*
X141042985Y-103919208D01*
X141110960Y-104036944D01*
X141115378Y-104041851D01*
X141115379Y-104041852D01*
X141141470Y-104070829D01*
X141238747Y-104178866D01*
X141393248Y-104291118D01*
X141399276Y-104293802D01*
X141399278Y-104293803D01*
X141462637Y-104322012D01*
X141567712Y-104368794D01*
X141661113Y-104388647D01*
X141748056Y-104407128D01*
X141748061Y-104407128D01*
X141754513Y-104408500D01*
X141810406Y-104408500D01*
X141878527Y-104428502D01*
X141899501Y-104445405D01*
X142396343Y-104942247D01*
X142403887Y-104950537D01*
X142408000Y-104957018D01*
X142413777Y-104962443D01*
X142457667Y-105003658D01*
X142460509Y-105006413D01*
X142480230Y-105026134D01*
X142483425Y-105028612D01*
X142492447Y-105036318D01*
X142524679Y-105066586D01*
X142531628Y-105070406D01*
X142542432Y-105076346D01*
X142558956Y-105087199D01*
X142574959Y-105099613D01*
X142615543Y-105117176D01*
X142626173Y-105122383D01*
X142664940Y-105143695D01*
X142672617Y-105145666D01*
X142672622Y-105145668D01*
X142684558Y-105148732D01*
X142703266Y-105155137D01*
X142721855Y-105163181D01*
X142729683Y-105164421D01*
X142729690Y-105164423D01*
X142765524Y-105170099D01*
X142777144Y-105172505D01*
X142809890Y-105180912D01*
X142819970Y-105183500D01*
X142840224Y-105183500D01*
X142859934Y-105185051D01*
X142879943Y-105188220D01*
X142887835Y-105187474D01*
X142923961Y-105184059D01*
X142935819Y-105183500D01*
X143091800Y-105183500D01*
X143159921Y-105203502D01*
X143179147Y-105219843D01*
X143179420Y-105219540D01*
X143184332Y-105223963D01*
X143188747Y-105228866D01*
X143210329Y-105244546D01*
X143288280Y-105301181D01*
X143343248Y-105341118D01*
X143349276Y-105343802D01*
X143349278Y-105343803D01*
X143483428Y-105403530D01*
X143517712Y-105418794D01*
X143611113Y-105438647D01*
X143698056Y-105457128D01*
X143698061Y-105457128D01*
X143704513Y-105458500D01*
X143895487Y-105458500D01*
X143901939Y-105457128D01*
X143901944Y-105457128D01*
X143988887Y-105438647D01*
X144082288Y-105418794D01*
X144116572Y-105403530D01*
X144250722Y-105343803D01*
X144250724Y-105343802D01*
X144256752Y-105341118D01*
X144411253Y-105228866D01*
X144447851Y-105188220D01*
X144534621Y-105091852D01*
X144534622Y-105091851D01*
X144539040Y-105086944D01*
X144615559Y-104954409D01*
X144631223Y-104927279D01*
X144631224Y-104927278D01*
X144634527Y-104921556D01*
X144693542Y-104739928D01*
X144713504Y-104550000D01*
X144693542Y-104360072D01*
X144634527Y-104178444D01*
X144539040Y-104013056D01*
X144411253Y-103871134D01*
X144256752Y-103758882D01*
X144250724Y-103756198D01*
X144250722Y-103756197D01*
X144088319Y-103683891D01*
X144088318Y-103683891D01*
X144082288Y-103681206D01*
X143988888Y-103661353D01*
X143901944Y-103642872D01*
X143901939Y-103642872D01*
X143895487Y-103641500D01*
X143704513Y-103641500D01*
X143698061Y-103642872D01*
X143698056Y-103642872D01*
X143611112Y-103661353D01*
X143517712Y-103681206D01*
X143511682Y-103683891D01*
X143511681Y-103683891D01*
X143349278Y-103756197D01*
X143349276Y-103756198D01*
X143343248Y-103758882D01*
X143337907Y-103762762D01*
X143337906Y-103762763D01*
X143234275Y-103838055D01*
X143167407Y-103861914D01*
X143098255Y-103845833D01*
X143071119Y-103825214D01*
X142797122Y-103551217D01*
X142763096Y-103488905D01*
X142760907Y-103475292D01*
X142744232Y-103316635D01*
X142744232Y-103316633D01*
X142743542Y-103310072D01*
X142684527Y-103128444D01*
X142589040Y-102963056D01*
X142461253Y-102821134D01*
X142362157Y-102749136D01*
X142312094Y-102712763D01*
X142312093Y-102712762D01*
X142306752Y-102708882D01*
X142300724Y-102706198D01*
X142300722Y-102706197D01*
X142138319Y-102633891D01*
X142138318Y-102633891D01*
X142132288Y-102631206D01*
X142038888Y-102611353D01*
X141951944Y-102592872D01*
X141951939Y-102592872D01*
X141945487Y-102591500D01*
X141754513Y-102591500D01*
X141748061Y-102592872D01*
X141748056Y-102592872D01*
X141661113Y-102611353D01*
X141567712Y-102631206D01*
X141561682Y-102633891D01*
X141561681Y-102633891D01*
X141399278Y-102706197D01*
X141399276Y-102706198D01*
X141393248Y-102708882D01*
X141387907Y-102712762D01*
X141387906Y-102712763D01*
X141337843Y-102749136D01*
X141238747Y-102821134D01*
X141110960Y-102963056D01*
X141015473Y-103128444D01*
X140956458Y-103310072D01*
X140936496Y-103500000D01*
X125058500Y-103500000D01*
X125058500Y-100774000D01*
X125686500Y-100774000D01*
X125686860Y-100777346D01*
X125686860Y-100777351D01*
X125697020Y-100871852D01*
X125698234Y-100883149D01*
X125698952Y-100886449D01*
X125698952Y-100886450D01*
X125705961Y-100918669D01*
X125709620Y-100935491D01*
X125744290Y-101039657D01*
X125823308Y-101162612D01*
X125869801Y-101216268D01*
X125879067Y-101224297D01*
X125973450Y-101306081D01*
X125973453Y-101306083D01*
X125980261Y-101311982D01*
X126113210Y-101372698D01*
X126136964Y-101379673D01*
X126177008Y-101391431D01*
X126177012Y-101391432D01*
X126181331Y-101392700D01*
X126185780Y-101393340D01*
X126185786Y-101393341D01*
X126321553Y-101412861D01*
X126321558Y-101412861D01*
X126326000Y-101413500D01*
X127874000Y-101413500D01*
X127877346Y-101413140D01*
X127877351Y-101413140D01*
X127979785Y-101402128D01*
X127979792Y-101402127D01*
X127983149Y-101401766D01*
X127994665Y-101399261D01*
X128032210Y-101391094D01*
X128032215Y-101391093D01*
X128035491Y-101390380D01*
X128139657Y-101355710D01*
X128262612Y-101276692D01*
X128267222Y-101272698D01*
X128312875Y-101233139D01*
X128316268Y-101230199D01*
X128340905Y-101201766D01*
X128406081Y-101126550D01*
X128406083Y-101126547D01*
X128411982Y-101119739D01*
X128472698Y-100986790D01*
X128486290Y-100940499D01*
X128491431Y-100922992D01*
X128491432Y-100922988D01*
X128492700Y-100918669D01*
X128493726Y-100911538D01*
X128512861Y-100778447D01*
X128512861Y-100778442D01*
X128513500Y-100774000D01*
X128513500Y-97939500D01*
X128533502Y-97871379D01*
X128587158Y-97824886D01*
X128639500Y-97813500D01*
X129203446Y-97813500D01*
X129271567Y-97833502D01*
X129318060Y-97887158D01*
X129328164Y-97957432D01*
X129298670Y-98022012D01*
X129269749Y-98046644D01*
X129242433Y-98063548D01*
X129179452Y-98102522D01*
X129054495Y-98227697D01*
X129050655Y-98233927D01*
X129050654Y-98233928D01*
X129007113Y-98304565D01*
X128961685Y-98378262D01*
X128906003Y-98546139D01*
X128905303Y-98552975D01*
X128905302Y-98552978D01*
X128902741Y-98577978D01*
X128895300Y-98650600D01*
X128895300Y-99426400D01*
X128895637Y-99429646D01*
X128895637Y-99429650D01*
X128902937Y-99500000D01*
X128906274Y-99532166D01*
X128908455Y-99538702D01*
X128908455Y-99538704D01*
X128944671Y-99647255D01*
X128962250Y-99699946D01*
X129055322Y-99850348D01*
X129180497Y-99975305D01*
X129186727Y-99979145D01*
X129186728Y-99979146D01*
X129323890Y-100063694D01*
X129331062Y-100068115D01*
X129354835Y-100076000D01*
X129492411Y-100121632D01*
X129492413Y-100121632D01*
X129498939Y-100123797D01*
X129505775Y-100124497D01*
X129505778Y-100124498D01*
X129548831Y-100128909D01*
X129603400Y-100134500D01*
X130654200Y-100134500D01*
X130657446Y-100134163D01*
X130657450Y-100134163D01*
X130753108Y-100124238D01*
X130753112Y-100124237D01*
X130759966Y-100123526D01*
X130766502Y-100121345D01*
X130766504Y-100121345D01*
X130917135Y-100071090D01*
X130927746Y-100067550D01*
X130996013Y-100025305D01*
X131013755Y-100014326D01*
X131082207Y-99995488D01*
X131149977Y-100016649D01*
X131195548Y-100071090D01*
X131198641Y-100078880D01*
X131276831Y-100296658D01*
X131279048Y-100300784D01*
X131383917Y-100495955D01*
X131397025Y-100520351D01*
X131399820Y-100524094D01*
X131399822Y-100524097D01*
X131546171Y-100720082D01*
X131546176Y-100720088D01*
X131548963Y-100723820D01*
X131552272Y-100727100D01*
X131552277Y-100727106D01*
X131713018Y-100886450D01*
X131729307Y-100902597D01*
X131733069Y-100905355D01*
X131733072Y-100905358D01*
X131867542Y-101003955D01*
X131934094Y-101052753D01*
X131938229Y-101054929D01*
X131938233Y-101054931D01*
X132045831Y-101111541D01*
X132158827Y-101170991D01*
X132398568Y-101254712D01*
X132648050Y-101302078D01*
X132768532Y-101306811D01*
X132897125Y-101311864D01*
X132897130Y-101311864D01*
X132901793Y-101312047D01*
X133000774Y-101301207D01*
X133149569Y-101284912D01*
X133149575Y-101284911D01*
X133154222Y-101284402D01*
X133183507Y-101276692D01*
X133395273Y-101220938D01*
X133399793Y-101219748D01*
X133548847Y-101155710D01*
X133628807Y-101121357D01*
X133628810Y-101121355D01*
X133633110Y-101119508D01*
X133637090Y-101117045D01*
X133637094Y-101117043D01*
X133845064Y-100988347D01*
X133845066Y-100988345D01*
X133849047Y-100985882D01*
X133859062Y-100977404D01*
X134039289Y-100824831D01*
X134039291Y-100824829D01*
X134042862Y-100821806D01*
X134210295Y-100630884D01*
X134219996Y-100615803D01*
X134345141Y-100421242D01*
X134347669Y-100417312D01*
X134451967Y-100185780D01*
X134520896Y-99941375D01*
X134534996Y-99830540D01*
X134563435Y-99765488D01*
X134622529Y-99726138D01*
X134693517Y-99724984D01*
X134753859Y-99762391D01*
X134767133Y-99780138D01*
X134793397Y-99822580D01*
X134841522Y-99900348D01*
X134966697Y-100025305D01*
X134972927Y-100029145D01*
X134972928Y-100029146D01*
X135110090Y-100113694D01*
X135117262Y-100118115D01*
X135164533Y-100133794D01*
X135278611Y-100171632D01*
X135278613Y-100171632D01*
X135285139Y-100173797D01*
X135291975Y-100174497D01*
X135291978Y-100174498D01*
X135335031Y-100178909D01*
X135389600Y-100184500D01*
X136390400Y-100184500D01*
X136393646Y-100184163D01*
X136393650Y-100184163D01*
X136489308Y-100174238D01*
X136489312Y-100174237D01*
X136496166Y-100173526D01*
X136502702Y-100171345D01*
X136502704Y-100171345D01*
X136643900Y-100124238D01*
X136663946Y-100117550D01*
X136814348Y-100024478D01*
X136826101Y-100012705D01*
X136903657Y-99935013D01*
X136939305Y-99899303D01*
X136950584Y-99881006D01*
X136988568Y-99819384D01*
X137041340Y-99771891D01*
X137095828Y-99759500D01*
X139906511Y-99759500D01*
X139974632Y-99779502D01*
X140021125Y-99833158D01*
X140028772Y-99860969D01*
X140029575Y-99860778D01*
X140031402Y-99868460D01*
X140032255Y-99876316D01*
X140045764Y-99912351D01*
X140076931Y-99995488D01*
X140083385Y-100012705D01*
X140086727Y-100017164D01*
X140101530Y-100084848D01*
X140086933Y-100134561D01*
X140083385Y-100139295D01*
X140080236Y-100147696D01*
X140080234Y-100147699D01*
X140063043Y-100193556D01*
X140032255Y-100275684D01*
X140025500Y-100337866D01*
X140025500Y-101084134D01*
X140032255Y-101146316D01*
X140083385Y-101282705D01*
X140170739Y-101399261D01*
X140287295Y-101486615D01*
X140423684Y-101537745D01*
X140485866Y-101544500D01*
X142282134Y-101544500D01*
X142344316Y-101537745D01*
X142480705Y-101486615D01*
X142597261Y-101399261D01*
X142684615Y-101282705D01*
X142735745Y-101146316D01*
X142742500Y-101084134D01*
X142742500Y-101029594D01*
X142762502Y-100961473D01*
X142779405Y-100940499D01*
X142952499Y-100767405D01*
X143014811Y-100733379D01*
X143041594Y-100730500D01*
X143097487Y-100730500D01*
X143103939Y-100729128D01*
X143103944Y-100729128D01*
X143190888Y-100710647D01*
X143284288Y-100690794D01*
X143314482Y-100677351D01*
X143452722Y-100615803D01*
X143452724Y-100615802D01*
X143458752Y-100613118D01*
X143613253Y-100500866D01*
X143741040Y-100358944D01*
X143836527Y-100193556D01*
X143895542Y-100011928D01*
X143898988Y-99979146D01*
X143914814Y-99828565D01*
X143915504Y-99822000D01*
X143907453Y-99745395D01*
X143896232Y-99638635D01*
X143896232Y-99638633D01*
X143895542Y-99632072D01*
X143836527Y-99450444D01*
X143800302Y-99387700D01*
X143783564Y-99318706D01*
X143806784Y-99251614D01*
X143862591Y-99207727D01*
X143883218Y-99201456D01*
X144046288Y-99166794D01*
X144052319Y-99164109D01*
X144214722Y-99091803D01*
X144214724Y-99091802D01*
X144220752Y-99089118D01*
X144233330Y-99079980D01*
X144289034Y-99039508D01*
X144375253Y-98976866D01*
X144449627Y-98894265D01*
X144498621Y-98839852D01*
X144498622Y-98839851D01*
X144503040Y-98834944D01*
X144591117Y-98682390D01*
X144595223Y-98675279D01*
X144595224Y-98675278D01*
X144598527Y-98669556D01*
X144657542Y-98487928D01*
X144660798Y-98456955D01*
X144676814Y-98304565D01*
X144677504Y-98298000D01*
X144660043Y-98131866D01*
X144658232Y-98114635D01*
X144658232Y-98114633D01*
X144657542Y-98108072D01*
X144598527Y-97926444D01*
X144588402Y-97908906D01*
X144561314Y-97861990D01*
X144503040Y-97761056D01*
X144473727Y-97728500D01*
X144379675Y-97624045D01*
X144379674Y-97624044D01*
X144375253Y-97619134D01*
X144220752Y-97506882D01*
X144214724Y-97504198D01*
X144214722Y-97504197D01*
X144052319Y-97431891D01*
X144052318Y-97431891D01*
X144046288Y-97429206D01*
X143952887Y-97409353D01*
X143865944Y-97390872D01*
X143865939Y-97390872D01*
X143859487Y-97389500D01*
X143668513Y-97389500D01*
X143662061Y-97390872D01*
X143662056Y-97390872D01*
X143575113Y-97409353D01*
X143481712Y-97429206D01*
X143475682Y-97431891D01*
X143475681Y-97431891D01*
X143313278Y-97504197D01*
X143313276Y-97504198D01*
X143307248Y-97506882D01*
X143301907Y-97510762D01*
X143301906Y-97510763D01*
X143180451Y-97599006D01*
X143152747Y-97619134D01*
X143148332Y-97624037D01*
X143143420Y-97628460D01*
X143142295Y-97627211D01*
X143088986Y-97660051D01*
X143055800Y-97664500D01*
X142793527Y-97664500D01*
X142725406Y-97644498D01*
X142685516Y-97601699D01*
X142684615Y-97599295D01*
X142597261Y-97482739D01*
X142480705Y-97395385D01*
X142344316Y-97344255D01*
X142282134Y-97337500D01*
X140485866Y-97337500D01*
X140423684Y-97344255D01*
X140287295Y-97395385D01*
X140170739Y-97482739D01*
X140083385Y-97599295D01*
X140032255Y-97735684D01*
X140025500Y-97797866D01*
X140025500Y-98266500D01*
X140005498Y-98334621D01*
X139951842Y-98381114D01*
X139899500Y-98392500D01*
X137095840Y-98392500D01*
X137027719Y-98372498D01*
X136988696Y-98332803D01*
X136942332Y-98257880D01*
X136938478Y-98251652D01*
X136813303Y-98126695D01*
X136782494Y-98107704D01*
X136668968Y-98037725D01*
X136668966Y-98037724D01*
X136662738Y-98033885D01*
X136545527Y-97995008D01*
X136501389Y-97980368D01*
X136501387Y-97980368D01*
X136494861Y-97978203D01*
X136488025Y-97977503D01*
X136488022Y-97977502D01*
X136444969Y-97973091D01*
X136390400Y-97967500D01*
X136324305Y-97967500D01*
X136256184Y-97947498D01*
X136235210Y-97930595D01*
X134903405Y-96598790D01*
X134869379Y-96536478D01*
X134866500Y-96509695D01*
X134866500Y-95971866D01*
X134859745Y-95909684D01*
X134808615Y-95773295D01*
X134721261Y-95656739D01*
X134604705Y-95569385D01*
X134468316Y-95518255D01*
X134406134Y-95511500D01*
X133309866Y-95511500D01*
X133247684Y-95518255D01*
X133111295Y-95569385D01*
X132994739Y-95656739D01*
X132989358Y-95663919D01*
X132985343Y-95667934D01*
X132923031Y-95701960D01*
X132852216Y-95696895D01*
X132795380Y-95654348D01*
X132789104Y-95645143D01*
X132762330Y-95601877D01*
X132758478Y-95595652D01*
X132633303Y-95470695D01*
X132627072Y-95466854D01*
X132488968Y-95381725D01*
X132488966Y-95381724D01*
X132482738Y-95377885D01*
X132381452Y-95344290D01*
X132321389Y-95324368D01*
X132321387Y-95324368D01*
X132314861Y-95322203D01*
X132308025Y-95321503D01*
X132308022Y-95321502D01*
X132264969Y-95317091D01*
X132210400Y-95311500D01*
X131409600Y-95311500D01*
X131406354Y-95311837D01*
X131406350Y-95311837D01*
X131310692Y-95321762D01*
X131310688Y-95321763D01*
X131303834Y-95322474D01*
X131297298Y-95324655D01*
X131297296Y-95324655D01*
X131225678Y-95348549D01*
X131136054Y-95378450D01*
X130985652Y-95471522D01*
X130980479Y-95476704D01*
X130980474Y-95476708D01*
X130965699Y-95491509D01*
X130903417Y-95525589D01*
X130832597Y-95520586D01*
X130787407Y-95489237D01*
X130786329Y-95490315D01*
X130783139Y-95487125D01*
X130780199Y-95483732D01*
X130770933Y-95475703D01*
X130676550Y-95393919D01*
X130676547Y-95393917D01*
X130669739Y-95388018D01*
X130536790Y-95327302D01*
X130513036Y-95320327D01*
X130472992Y-95308569D01*
X130472988Y-95308568D01*
X130468669Y-95307300D01*
X130464220Y-95306660D01*
X130464214Y-95306659D01*
X130417899Y-95300000D01*
X144786496Y-95300000D01*
X144787186Y-95306565D01*
X144805069Y-95476708D01*
X144806458Y-95489928D01*
X144865473Y-95671556D01*
X144868776Y-95677278D01*
X144868777Y-95677279D01*
X144883027Y-95701960D01*
X144960960Y-95836944D01*
X144965378Y-95841851D01*
X144965379Y-95841852D01*
X145082444Y-95971866D01*
X145088747Y-95978866D01*
X145159947Y-96030596D01*
X145211249Y-96067869D01*
X145243248Y-96091118D01*
X145249276Y-96093802D01*
X145249278Y-96093803D01*
X145347424Y-96137500D01*
X145417712Y-96168794D01*
X145511112Y-96188647D01*
X145598056Y-96207128D01*
X145598061Y-96207128D01*
X145604513Y-96208500D01*
X145795487Y-96208500D01*
X145801939Y-96207128D01*
X145801944Y-96207128D01*
X145888887Y-96188647D01*
X145982288Y-96168794D01*
X146052576Y-96137500D01*
X146150722Y-96093803D01*
X146150724Y-96093802D01*
X146156752Y-96091118D01*
X146188752Y-96067869D01*
X146240053Y-96030596D01*
X146311253Y-95978866D01*
X146317556Y-95971866D01*
X146434621Y-95841852D01*
X146434622Y-95841851D01*
X146439040Y-95836944D01*
X146516973Y-95701960D01*
X146522435Y-95692500D01*
X146573818Y-95643507D01*
X146631554Y-95629500D01*
X148534405Y-95629500D01*
X148602526Y-95649502D01*
X148649019Y-95703158D01*
X148659123Y-95773432D01*
X148629629Y-95838012D01*
X148623507Y-95844589D01*
X148499626Y-95968469D01*
X148437499Y-96030596D01*
X148375187Y-96064621D01*
X148348404Y-96067500D01*
X147785866Y-96067500D01*
X147723684Y-96074255D01*
X147587295Y-96125385D01*
X147470739Y-96212739D01*
X147383385Y-96329295D01*
X147332255Y-96465684D01*
X147325500Y-96527866D01*
X147325500Y-97274134D01*
X147332255Y-97336316D01*
X147335029Y-97343715D01*
X147374305Y-97448483D01*
X147383385Y-97472705D01*
X147386727Y-97477164D01*
X147401530Y-97544848D01*
X147386933Y-97594561D01*
X147383385Y-97599295D01*
X147380236Y-97607696D01*
X147380234Y-97607699D01*
X147358941Y-97664500D01*
X147332255Y-97735684D01*
X147325500Y-97797866D01*
X147325500Y-98544134D01*
X147332255Y-98606316D01*
X147348856Y-98650600D01*
X147377220Y-98726259D01*
X147383385Y-98742705D01*
X147386727Y-98747164D01*
X147401530Y-98814848D01*
X147386933Y-98864561D01*
X147383385Y-98869295D01*
X147380236Y-98877696D01*
X147380234Y-98877699D01*
X147374024Y-98894265D01*
X147332255Y-99005684D01*
X147325500Y-99067866D01*
X147325500Y-99510500D01*
X147305498Y-99578621D01*
X147251842Y-99625114D01*
X147199500Y-99636500D01*
X146376000Y-99636500D01*
X146372654Y-99636860D01*
X146372649Y-99636860D01*
X146270215Y-99647872D01*
X146270208Y-99647873D01*
X146266851Y-99648234D01*
X146263551Y-99648952D01*
X146263550Y-99648952D01*
X146217790Y-99658906D01*
X146217785Y-99658907D01*
X146214509Y-99659620D01*
X146110343Y-99694290D01*
X145987388Y-99773308D01*
X145983993Y-99776250D01*
X145983990Y-99776252D01*
X145951712Y-99804221D01*
X145933732Y-99819801D01*
X145930792Y-99823194D01*
X145843919Y-99923450D01*
X145843917Y-99923453D01*
X145838018Y-99930261D01*
X145834274Y-99938459D01*
X145830888Y-99945873D01*
X145777302Y-100063210D01*
X145776034Y-100067529D01*
X145759383Y-100124238D01*
X145757300Y-100131331D01*
X145756660Y-100135780D01*
X145756659Y-100135786D01*
X145744192Y-100222500D01*
X145736500Y-100276000D01*
X145736500Y-103474000D01*
X145748234Y-103583149D01*
X145759620Y-103635491D01*
X145794290Y-103739657D01*
X145873308Y-103862612D01*
X145876250Y-103866007D01*
X145876252Y-103866010D01*
X145886017Y-103877279D01*
X145919801Y-103916268D01*
X145923194Y-103919208D01*
X146023450Y-104006081D01*
X146023453Y-104006083D01*
X146030261Y-104011982D01*
X146163210Y-104072698D01*
X146175341Y-104076260D01*
X146227008Y-104091431D01*
X146227012Y-104091432D01*
X146231331Y-104092700D01*
X146235780Y-104093340D01*
X146235786Y-104093341D01*
X146371553Y-104112861D01*
X146371558Y-104112861D01*
X146376000Y-104113500D01*
X147860500Y-104113500D01*
X147928621Y-104133502D01*
X147975114Y-104187158D01*
X147986500Y-104239500D01*
X147986500Y-107174000D01*
X147986860Y-107177346D01*
X147986860Y-107177351D01*
X147987778Y-107185888D01*
X147988500Y-107199356D01*
X147988500Y-107324134D01*
X147995255Y-107386316D01*
X148046385Y-107522705D01*
X148133739Y-107639261D01*
X148250295Y-107726615D01*
X148386684Y-107777745D01*
X148417817Y-107781127D01*
X148444932Y-107784073D01*
X148466817Y-107788439D01*
X148477004Y-107791430D01*
X148477011Y-107791431D01*
X148481331Y-107792700D01*
X148485780Y-107793340D01*
X148485786Y-107793341D01*
X148621553Y-107812861D01*
X148621558Y-107812861D01*
X148626000Y-107813500D01*
X150074000Y-107813500D01*
X150077346Y-107813140D01*
X150077351Y-107813140D01*
X150179785Y-107802128D01*
X150179792Y-107802127D01*
X150183149Y-107801766D01*
X150186450Y-107801048D01*
X150232210Y-107791094D01*
X150232215Y-107791093D01*
X150235491Y-107790380D01*
X150241323Y-107788439D01*
X150244268Y-107787459D01*
X150270442Y-107781751D01*
X150283491Y-107780333D01*
X150307316Y-107777745D01*
X150443705Y-107726615D01*
X150560261Y-107639261D01*
X150647615Y-107522705D01*
X150669799Y-107463529D01*
X150691598Y-107405382D01*
X150734240Y-107348618D01*
X150800802Y-107323918D01*
X150870150Y-107339126D01*
X150904817Y-107367114D01*
X150933250Y-107399938D01*
X151105126Y-107542632D01*
X151298000Y-107655338D01*
X151506692Y-107735030D01*
X151511760Y-107736061D01*
X151511763Y-107736062D01*
X151619017Y-107757883D01*
X151725597Y-107779567D01*
X151730772Y-107779757D01*
X151730774Y-107779757D01*
X151943673Y-107787564D01*
X151943677Y-107787564D01*
X151948837Y-107787753D01*
X151953957Y-107787097D01*
X151953959Y-107787097D01*
X152165288Y-107760025D01*
X152165289Y-107760025D01*
X152170416Y-107759368D01*
X152175366Y-107757883D01*
X152379429Y-107696661D01*
X152379434Y-107696659D01*
X152384384Y-107695174D01*
X152584994Y-107596896D01*
X152766860Y-107467173D01*
X152925096Y-107309489D01*
X153055453Y-107128077D01*
X153059145Y-107120608D01*
X153152136Y-106932453D01*
X153152137Y-106932451D01*
X153154430Y-106927811D01*
X153219370Y-106714069D01*
X153248529Y-106492590D01*
X153250156Y-106426000D01*
X153231852Y-106203361D01*
X153177431Y-105986702D01*
X153088354Y-105781840D01*
X153026274Y-105685879D01*
X152969822Y-105598617D01*
X152969820Y-105598614D01*
X152967014Y-105594277D01*
X152816670Y-105429051D01*
X152812619Y-105425852D01*
X152812615Y-105425848D01*
X152645414Y-105293800D01*
X152645410Y-105293798D01*
X152641359Y-105290598D01*
X152445789Y-105182638D01*
X152440920Y-105180914D01*
X152440916Y-105180912D01*
X152240087Y-105109795D01*
X152240083Y-105109794D01*
X152235212Y-105108069D01*
X152230119Y-105107162D01*
X152230116Y-105107161D01*
X152020373Y-105069800D01*
X152020367Y-105069799D01*
X152015284Y-105068894D01*
X151941452Y-105067992D01*
X151797081Y-105066228D01*
X151797079Y-105066228D01*
X151791911Y-105066165D01*
X151571091Y-105099955D01*
X151358756Y-105169357D01*
X151331588Y-105183500D01*
X151262356Y-105219540D01*
X151160607Y-105272507D01*
X151156474Y-105275610D01*
X151156471Y-105275612D01*
X150986100Y-105403530D01*
X150981965Y-105406635D01*
X150969035Y-105420166D01*
X150930594Y-105460392D01*
X150869070Y-105495822D01*
X150798158Y-105492365D01*
X150740371Y-105451119D01*
X150714057Y-105385179D01*
X150713500Y-105373341D01*
X150713500Y-104239500D01*
X150733502Y-104171379D01*
X150787158Y-104124886D01*
X150839500Y-104113500D01*
X157078405Y-104113500D01*
X157146526Y-104133502D01*
X157193019Y-104187158D01*
X157203123Y-104257432D01*
X157173629Y-104322012D01*
X157167500Y-104328595D01*
X156465500Y-105030595D01*
X156403188Y-105064621D01*
X156376405Y-105067500D01*
X155067866Y-105067500D01*
X155005684Y-105074255D01*
X154869295Y-105125385D01*
X154752739Y-105212739D01*
X154665385Y-105329295D01*
X154614255Y-105465684D01*
X154607500Y-105527866D01*
X154607500Y-107324134D01*
X154614255Y-107386316D01*
X154665385Y-107522705D01*
X154752739Y-107639261D01*
X154869295Y-107726615D01*
X155005684Y-107777745D01*
X155067866Y-107784500D01*
X156864134Y-107784500D01*
X156926316Y-107777745D01*
X157062705Y-107726615D01*
X157179261Y-107639261D01*
X157266615Y-107522705D01*
X157288799Y-107463529D01*
X157310598Y-107405382D01*
X157353240Y-107348618D01*
X157419802Y-107323918D01*
X157489150Y-107339126D01*
X157523817Y-107367114D01*
X157552250Y-107399938D01*
X157724126Y-107542632D01*
X157917000Y-107655338D01*
X158125692Y-107735030D01*
X158130760Y-107736061D01*
X158130763Y-107736062D01*
X158238017Y-107757883D01*
X158344597Y-107779567D01*
X158349772Y-107779757D01*
X158349774Y-107779757D01*
X158562673Y-107787564D01*
X158562677Y-107787564D01*
X158567837Y-107787753D01*
X158572957Y-107787097D01*
X158572959Y-107787097D01*
X158784288Y-107760025D01*
X158784289Y-107760025D01*
X158789416Y-107759368D01*
X158794366Y-107757883D01*
X158998429Y-107696661D01*
X158998434Y-107696659D01*
X159003384Y-107695174D01*
X159203994Y-107596896D01*
X159385860Y-107467173D01*
X159544096Y-107309489D01*
X159674453Y-107128077D01*
X159675776Y-107129028D01*
X159722645Y-107085857D01*
X159792580Y-107073625D01*
X159858026Y-107101144D01*
X159885875Y-107132994D01*
X159945987Y-107231088D01*
X160092250Y-107399938D01*
X160264126Y-107542632D01*
X160457000Y-107655338D01*
X160665692Y-107735030D01*
X160670760Y-107736061D01*
X160670763Y-107736062D01*
X160778017Y-107757883D01*
X160884597Y-107779567D01*
X160889772Y-107779757D01*
X160889774Y-107779757D01*
X161102673Y-107787564D01*
X161102677Y-107787564D01*
X161107837Y-107787753D01*
X161112957Y-107787097D01*
X161112959Y-107787097D01*
X161324288Y-107760025D01*
X161324289Y-107760025D01*
X161329416Y-107759368D01*
X161334366Y-107757883D01*
X161538429Y-107696661D01*
X161538434Y-107696659D01*
X161543384Y-107695174D01*
X161743994Y-107596896D01*
X161925860Y-107467173D01*
X162084096Y-107309489D01*
X162214453Y-107128077D01*
X162215776Y-107129028D01*
X162262645Y-107085857D01*
X162332580Y-107073625D01*
X162398026Y-107101144D01*
X162425875Y-107132994D01*
X162485987Y-107231088D01*
X162632250Y-107399938D01*
X162804126Y-107542632D01*
X162997000Y-107655338D01*
X163205692Y-107735030D01*
X163210760Y-107736061D01*
X163210763Y-107736062D01*
X163318017Y-107757883D01*
X163424597Y-107779567D01*
X163429772Y-107779757D01*
X163429774Y-107779757D01*
X163642673Y-107787564D01*
X163642677Y-107787564D01*
X163647837Y-107787753D01*
X163652957Y-107787097D01*
X163652959Y-107787097D01*
X163864288Y-107760025D01*
X163864289Y-107760025D01*
X163869416Y-107759368D01*
X163874366Y-107757883D01*
X164078429Y-107696661D01*
X164078434Y-107696659D01*
X164083384Y-107695174D01*
X164283994Y-107596896D01*
X164465860Y-107467173D01*
X164624096Y-107309489D01*
X164754453Y-107128077D01*
X164756746Y-107123437D01*
X164758446Y-107120608D01*
X164810674Y-107072518D01*
X164866451Y-107059500D01*
X166345233Y-107059500D01*
X166356416Y-107060027D01*
X166363909Y-107061702D01*
X166371835Y-107061453D01*
X166371836Y-107061453D01*
X166431986Y-107059562D01*
X166435945Y-107059500D01*
X166463856Y-107059500D01*
X166467791Y-107059003D01*
X166467856Y-107058995D01*
X166479693Y-107058062D01*
X166511951Y-107057048D01*
X166515970Y-107056922D01*
X166523889Y-107056673D01*
X166543343Y-107051021D01*
X166562700Y-107047013D01*
X166574930Y-107045468D01*
X166574931Y-107045468D01*
X166582797Y-107044474D01*
X166590168Y-107041555D01*
X166590170Y-107041555D01*
X166623912Y-107028196D01*
X166635142Y-107024351D01*
X166669983Y-107014229D01*
X166669984Y-107014229D01*
X166677593Y-107012018D01*
X166684412Y-107007985D01*
X166684417Y-107007983D01*
X166695028Y-107001707D01*
X166712776Y-106993012D01*
X166731617Y-106985552D01*
X166767387Y-106959564D01*
X166777307Y-106953048D01*
X166808535Y-106934580D01*
X166808538Y-106934578D01*
X166815362Y-106930542D01*
X166829683Y-106916221D01*
X166844717Y-106903380D01*
X166854694Y-106896131D01*
X166861107Y-106891472D01*
X166889298Y-106857395D01*
X166897288Y-106848616D01*
X167905247Y-105840657D01*
X167913537Y-105833113D01*
X167920018Y-105829000D01*
X167954294Y-105792500D01*
X167966658Y-105779333D01*
X167969413Y-105776491D01*
X167989135Y-105756769D01*
X167991612Y-105753576D01*
X167999317Y-105744555D01*
X168009973Y-105733207D01*
X168029586Y-105712321D01*
X168033407Y-105705371D01*
X168039346Y-105694568D01*
X168050202Y-105678041D01*
X168057757Y-105668302D01*
X168057758Y-105668300D01*
X168062614Y-105662040D01*
X168080174Y-105621460D01*
X168085391Y-105610812D01*
X168102875Y-105579009D01*
X168102876Y-105579007D01*
X168106695Y-105572060D01*
X168111733Y-105552437D01*
X168118137Y-105533734D01*
X168123033Y-105522420D01*
X168123033Y-105522419D01*
X168126181Y-105515145D01*
X168127420Y-105507322D01*
X168127423Y-105507312D01*
X168133099Y-105471476D01*
X168135505Y-105459856D01*
X168144528Y-105424711D01*
X168144528Y-105424710D01*
X168146500Y-105417030D01*
X168146500Y-105396776D01*
X168148051Y-105377065D01*
X168149980Y-105364886D01*
X168151220Y-105357057D01*
X168147059Y-105313038D01*
X168146500Y-105301181D01*
X168146500Y-104129950D01*
X168166502Y-104061829D01*
X168177059Y-104048729D01*
X168176989Y-104048675D01*
X168181845Y-104042415D01*
X168187453Y-104036807D01*
X168191489Y-104029983D01*
X168191491Y-104029980D01*
X168268108Y-103900427D01*
X168272145Y-103893601D01*
X168277246Y-103876045D01*
X168292013Y-103825214D01*
X168318562Y-103733831D01*
X168321500Y-103696502D01*
X168321500Y-101913498D01*
X168318562Y-101876169D01*
X168272145Y-101716399D01*
X168255107Y-101687589D01*
X168191491Y-101580020D01*
X168191489Y-101580017D01*
X168187453Y-101573193D01*
X168069807Y-101455547D01*
X168062983Y-101451511D01*
X168062980Y-101451509D01*
X167933427Y-101374892D01*
X167933428Y-101374892D01*
X167926601Y-101370855D01*
X167918990Y-101368644D01*
X167918988Y-101368643D01*
X167859811Y-101351451D01*
X167766831Y-101324438D01*
X167760426Y-101323934D01*
X167760421Y-101323933D01*
X167731958Y-101321693D01*
X167731950Y-101321693D01*
X167729502Y-101321500D01*
X167296498Y-101321500D01*
X167294050Y-101321693D01*
X167294042Y-101321693D01*
X167265579Y-101323933D01*
X167265574Y-101323934D01*
X167259169Y-101324438D01*
X167166189Y-101351451D01*
X167107012Y-101368643D01*
X167107010Y-101368644D01*
X167099399Y-101370855D01*
X166956193Y-101455547D01*
X166953511Y-101458229D01*
X166889139Y-101483502D01*
X166819516Y-101469600D01*
X166803688Y-101459428D01*
X166799807Y-101455547D01*
X166656601Y-101370855D01*
X166648990Y-101368644D01*
X166648988Y-101368643D01*
X166589811Y-101351451D01*
X166496831Y-101324438D01*
X166490426Y-101323934D01*
X166490421Y-101323933D01*
X166461958Y-101321693D01*
X166461950Y-101321693D01*
X166459502Y-101321500D01*
X166026498Y-101321500D01*
X166024050Y-101321693D01*
X166024042Y-101321693D01*
X165995579Y-101323933D01*
X165995574Y-101323934D01*
X165989169Y-101324438D01*
X165896189Y-101351451D01*
X165837012Y-101368643D01*
X165837010Y-101368644D01*
X165829399Y-101370855D01*
X165686193Y-101455547D01*
X165683511Y-101458229D01*
X165619139Y-101483502D01*
X165549516Y-101469600D01*
X165533688Y-101459428D01*
X165529807Y-101455547D01*
X165386601Y-101370855D01*
X165378990Y-101368644D01*
X165378988Y-101368643D01*
X165319811Y-101351451D01*
X165226831Y-101324438D01*
X165220426Y-101323934D01*
X165220421Y-101323933D01*
X165191958Y-101321693D01*
X165191950Y-101321693D01*
X165189502Y-101321500D01*
X164756498Y-101321500D01*
X164754050Y-101321693D01*
X164754042Y-101321693D01*
X164725579Y-101323933D01*
X164725574Y-101323934D01*
X164719169Y-101324438D01*
X164626189Y-101351451D01*
X164567012Y-101368643D01*
X164567010Y-101368644D01*
X164559399Y-101370855D01*
X164416193Y-101455547D01*
X164413511Y-101458229D01*
X164349139Y-101483502D01*
X164279516Y-101469600D01*
X164263688Y-101459428D01*
X164259807Y-101455547D01*
X164116601Y-101370855D01*
X164108990Y-101368644D01*
X164108988Y-101368643D01*
X164049811Y-101351451D01*
X163956831Y-101324438D01*
X163950426Y-101323934D01*
X163950421Y-101323933D01*
X163921958Y-101321693D01*
X163921950Y-101321693D01*
X163919502Y-101321500D01*
X163486498Y-101321500D01*
X163484050Y-101321693D01*
X163484042Y-101321693D01*
X163455579Y-101323933D01*
X163455574Y-101323934D01*
X163449169Y-101324438D01*
X163356189Y-101351451D01*
X163297012Y-101368643D01*
X163297010Y-101368644D01*
X163289399Y-101370855D01*
X163282572Y-101374892D01*
X163282573Y-101374892D01*
X163153020Y-101451509D01*
X163153017Y-101451511D01*
X163146193Y-101455547D01*
X163028547Y-101573193D01*
X163024511Y-101580017D01*
X163024509Y-101580020D01*
X162960893Y-101687589D01*
X162943855Y-101716399D01*
X162897438Y-101876169D01*
X162894500Y-101913498D01*
X162894500Y-102665405D01*
X162874498Y-102733526D01*
X162857595Y-102754501D01*
X162382499Y-103229596D01*
X162320187Y-103263621D01*
X162293404Y-103266500D01*
X158639500Y-103266500D01*
X158571379Y-103246498D01*
X158524886Y-103192842D01*
X158513500Y-103140500D01*
X158513500Y-100276000D01*
X158504260Y-100190048D01*
X158502128Y-100170215D01*
X158502127Y-100170208D01*
X158501766Y-100166851D01*
X158497600Y-100147699D01*
X158491094Y-100117790D01*
X158491093Y-100117785D01*
X158490380Y-100114509D01*
X158489319Y-100111321D01*
X158488423Y-100108056D01*
X158489766Y-100107688D01*
X158487450Y-100042304D01*
X158523695Y-99981257D01*
X158587191Y-99949496D01*
X158609527Y-99947500D01*
X165081984Y-99947500D01*
X165093167Y-99948027D01*
X165100660Y-99949702D01*
X165108586Y-99949453D01*
X165108587Y-99949453D01*
X165168737Y-99947562D01*
X165172696Y-99947500D01*
X165200607Y-99947500D01*
X165204542Y-99947003D01*
X165204607Y-99946995D01*
X165216444Y-99946062D01*
X165248702Y-99945048D01*
X165252721Y-99944922D01*
X165260640Y-99944673D01*
X165280094Y-99939021D01*
X165299451Y-99935013D01*
X165311681Y-99933468D01*
X165311682Y-99933468D01*
X165319548Y-99932474D01*
X165326919Y-99929555D01*
X165326921Y-99929555D01*
X165360663Y-99916196D01*
X165371893Y-99912351D01*
X165406734Y-99902229D01*
X165406735Y-99902229D01*
X165414344Y-99900018D01*
X165421163Y-99895985D01*
X165421168Y-99895983D01*
X165431779Y-99889707D01*
X165449527Y-99881012D01*
X165468368Y-99873552D01*
X165504138Y-99847564D01*
X165514058Y-99841048D01*
X165545286Y-99822580D01*
X165545289Y-99822578D01*
X165552113Y-99818542D01*
X165566434Y-99804221D01*
X165581468Y-99791380D01*
X165597858Y-99779472D01*
X165626049Y-99745395D01*
X165634039Y-99736616D01*
X165995250Y-99375405D01*
X166057562Y-99341379D01*
X166084345Y-99338500D01*
X166459502Y-99338500D01*
X166461950Y-99338307D01*
X166461958Y-99338307D01*
X166490421Y-99336067D01*
X166490426Y-99336066D01*
X166496831Y-99335562D01*
X166596769Y-99306528D01*
X166648988Y-99291357D01*
X166648990Y-99291356D01*
X166656601Y-99289145D01*
X166685411Y-99272107D01*
X166792980Y-99208491D01*
X166792983Y-99208489D01*
X166799807Y-99204453D01*
X166917453Y-99086807D01*
X166921489Y-99079983D01*
X166921491Y-99079980D01*
X166998108Y-98950427D01*
X167002145Y-98943601D01*
X167048562Y-98783831D01*
X167049399Y-98773207D01*
X167051307Y-98748958D01*
X167051307Y-98748950D01*
X167051500Y-98746502D01*
X167051500Y-97096595D01*
X167071502Y-97028474D01*
X167088405Y-97007499D01*
X167350501Y-96745404D01*
X167412813Y-96711379D01*
X167439596Y-96708500D01*
X167495487Y-96708500D01*
X167501939Y-96707128D01*
X167501944Y-96707128D01*
X167588887Y-96688647D01*
X167682288Y-96668794D01*
X167689682Y-96665502D01*
X167850722Y-96593803D01*
X167850724Y-96593802D01*
X167856752Y-96591118D01*
X167868972Y-96582240D01*
X167939107Y-96531283D01*
X168011253Y-96478866D01*
X168075211Y-96407833D01*
X168134621Y-96341852D01*
X168134622Y-96341851D01*
X168139040Y-96336944D01*
X168213857Y-96207358D01*
X168231223Y-96177279D01*
X168231224Y-96177278D01*
X168234527Y-96171556D01*
X168293542Y-95989928D01*
X168295441Y-95971866D01*
X168312814Y-95806565D01*
X168313504Y-95800000D01*
X168302667Y-95696895D01*
X168294232Y-95616635D01*
X168294232Y-95616633D01*
X168293542Y-95610072D01*
X168234527Y-95428444D01*
X168204007Y-95375581D01*
X168197314Y-95363990D01*
X168139040Y-95263056D01*
X168124138Y-95246505D01*
X168015675Y-95126045D01*
X168015674Y-95126044D01*
X168011253Y-95121134D01*
X167912157Y-95049136D01*
X167862094Y-95012763D01*
X167862093Y-95012762D01*
X167856752Y-95008882D01*
X167850724Y-95006198D01*
X167850722Y-95006197D01*
X167688319Y-94933891D01*
X167688318Y-94933891D01*
X167682288Y-94931206D01*
X167588887Y-94911353D01*
X167501944Y-94892872D01*
X167501939Y-94892872D01*
X167495487Y-94891500D01*
X167304513Y-94891500D01*
X167298061Y-94892872D01*
X167298056Y-94892872D01*
X167211113Y-94911353D01*
X167117712Y-94931206D01*
X167111682Y-94933891D01*
X167111681Y-94933891D01*
X166949278Y-95006197D01*
X166949276Y-95006198D01*
X166943248Y-95008882D01*
X166937907Y-95012762D01*
X166937906Y-95012763D01*
X166887843Y-95049136D01*
X166788747Y-95121134D01*
X166784326Y-95126044D01*
X166784325Y-95126045D01*
X166675863Y-95246505D01*
X166660960Y-95263056D01*
X166602686Y-95363990D01*
X166595994Y-95375581D01*
X166565473Y-95428444D01*
X166506458Y-95610072D01*
X166505768Y-95616633D01*
X166505768Y-95616635D01*
X166499996Y-95671556D01*
X166489289Y-95773432D01*
X166489093Y-95775293D01*
X166462080Y-95840950D01*
X166452878Y-95851218D01*
X165928165Y-96375931D01*
X165874222Y-96407833D01*
X165837015Y-96418642D01*
X165837012Y-96418643D01*
X165829399Y-96420855D01*
X165796637Y-96440231D01*
X165727822Y-96457689D01*
X165660491Y-96435172D01*
X165616022Y-96379827D01*
X165606500Y-96331776D01*
X165606500Y-95504678D01*
X165623380Y-95441679D01*
X165634826Y-95421855D01*
X165693841Y-95240227D01*
X165713803Y-95050299D01*
X165693841Y-94860371D01*
X165634826Y-94678743D01*
X165539339Y-94513355D01*
X165467790Y-94433891D01*
X165415974Y-94376344D01*
X165415973Y-94376343D01*
X165411552Y-94371433D01*
X165275134Y-94272319D01*
X165231780Y-94216096D01*
X165225705Y-94145360D01*
X165258837Y-94082569D01*
X165320657Y-94047657D01*
X165374315Y-94046913D01*
X165426518Y-94057534D01*
X165426522Y-94057534D01*
X165431597Y-94058567D01*
X165436772Y-94058757D01*
X165436774Y-94058757D01*
X165649673Y-94066564D01*
X165649677Y-94066564D01*
X165654837Y-94066753D01*
X165659957Y-94066097D01*
X165659959Y-94066097D01*
X165871288Y-94039025D01*
X165871289Y-94039025D01*
X165876416Y-94038368D01*
X165881366Y-94036883D01*
X166085429Y-93975661D01*
X166085434Y-93975659D01*
X166090384Y-93974174D01*
X166290994Y-93875896D01*
X166472860Y-93746173D01*
X166631096Y-93588489D01*
X166761453Y-93407077D01*
X166860430Y-93206811D01*
X166903335Y-93065595D01*
X166923865Y-92998023D01*
X166923865Y-92998021D01*
X166925370Y-92993069D01*
X166954529Y-92771590D01*
X166956156Y-92705000D01*
X166937852Y-92482361D01*
X166883431Y-92265702D01*
X166794354Y-92060840D01*
X166673014Y-91873277D01*
X166669532Y-91869450D01*
X166525798Y-91711488D01*
X166494746Y-91647642D01*
X166503141Y-91577143D01*
X166548317Y-91522375D01*
X166574761Y-91508706D01*
X166681297Y-91468767D01*
X166689705Y-91465615D01*
X166806261Y-91378261D01*
X166893615Y-91261705D01*
X166944745Y-91125316D01*
X166951500Y-91063134D01*
X166951500Y-89266866D01*
X166944745Y-89204684D01*
X166893615Y-89068295D01*
X166806261Y-88951739D01*
X166689705Y-88864385D01*
X166553316Y-88813255D01*
X166491134Y-88806500D01*
X164694866Y-88806500D01*
X164632684Y-88813255D01*
X164496295Y-88864385D01*
X164379739Y-88951739D01*
X164292385Y-89068295D01*
X164289233Y-89076703D01*
X164247919Y-89186907D01*
X164205277Y-89243671D01*
X164138716Y-89268371D01*
X164069367Y-89253163D01*
X164036743Y-89227476D01*
X163986151Y-89171875D01*
X163986142Y-89171866D01*
X163982670Y-89168051D01*
X163978619Y-89164852D01*
X163978615Y-89164848D01*
X163811414Y-89032800D01*
X163811410Y-89032798D01*
X163807359Y-89029598D01*
X163611789Y-88921638D01*
X163606920Y-88919914D01*
X163606916Y-88919912D01*
X163406087Y-88848795D01*
X163406083Y-88848794D01*
X163401212Y-88847069D01*
X163396119Y-88846162D01*
X163396116Y-88846161D01*
X163186373Y-88808800D01*
X163186367Y-88808799D01*
X163181284Y-88807894D01*
X163107452Y-88806992D01*
X162963081Y-88805228D01*
X162963079Y-88805228D01*
X162957911Y-88805165D01*
X162737091Y-88838955D01*
X162524756Y-88908357D01*
X162326607Y-89011507D01*
X162322474Y-89014610D01*
X162322471Y-89014612D01*
X162152100Y-89142530D01*
X162147965Y-89145635D01*
X162108525Y-89186907D01*
X162054280Y-89243671D01*
X161993629Y-89307138D01*
X161886201Y-89464621D01*
X161831293Y-89509621D01*
X161760768Y-89517792D01*
X161697021Y-89486538D01*
X161676324Y-89462054D01*
X161595822Y-89337617D01*
X161595820Y-89337614D01*
X161593014Y-89333277D01*
X161442670Y-89168051D01*
X161438619Y-89164852D01*
X161438615Y-89164848D01*
X161271414Y-89032800D01*
X161271410Y-89032798D01*
X161267359Y-89029598D01*
X161071789Y-88921638D01*
X161066920Y-88919914D01*
X161066916Y-88919912D01*
X160866087Y-88848795D01*
X160866083Y-88848794D01*
X160861212Y-88847069D01*
X160856119Y-88846162D01*
X160856116Y-88846161D01*
X160646373Y-88808800D01*
X160646367Y-88808799D01*
X160641284Y-88807894D01*
X160567452Y-88806992D01*
X160423081Y-88805228D01*
X160423079Y-88805228D01*
X160417911Y-88805165D01*
X160197091Y-88838955D01*
X159984756Y-88908357D01*
X159786607Y-89011507D01*
X159782474Y-89014610D01*
X159782471Y-89014612D01*
X159612100Y-89142530D01*
X159607965Y-89145635D01*
X159568525Y-89186907D01*
X159514280Y-89243671D01*
X159453629Y-89307138D01*
X159327743Y-89491680D01*
X159233688Y-89694305D01*
X159173989Y-89909570D01*
X159150251Y-90131695D01*
X159163110Y-90354715D01*
X159164247Y-90359761D01*
X159164248Y-90359767D01*
X159188304Y-90466508D01*
X159212222Y-90572639D01*
X159296266Y-90779616D01*
X159412987Y-90970088D01*
X159559250Y-91138938D01*
X159731126Y-91281632D01*
X159924000Y-91394338D01*
X159928825Y-91396180D01*
X159928826Y-91396181D01*
X159964863Y-91409942D01*
X160132692Y-91474030D01*
X160137760Y-91475061D01*
X160137763Y-91475062D01*
X160245003Y-91496880D01*
X160351597Y-91518567D01*
X160356772Y-91518757D01*
X160356774Y-91518757D01*
X160569673Y-91526564D01*
X160569677Y-91526564D01*
X160574837Y-91526753D01*
X160579957Y-91526097D01*
X160579959Y-91526097D01*
X160683624Y-91512817D01*
X160796416Y-91498368D01*
X160842826Y-91484444D01*
X160913821Y-91484026D01*
X160968129Y-91516034D01*
X161017595Y-91565500D01*
X161051621Y-91627812D01*
X161054500Y-91654595D01*
X161054500Y-93013405D01*
X161034498Y-93081526D01*
X161017595Y-93102500D01*
X159794500Y-94325595D01*
X159732188Y-94359621D01*
X159705405Y-94362500D01*
X146082767Y-94362500D01*
X146071584Y-94361973D01*
X146064091Y-94360298D01*
X146056165Y-94360547D01*
X146056164Y-94360547D01*
X145996001Y-94362438D01*
X145992043Y-94362500D01*
X145964144Y-94362500D01*
X145960154Y-94363004D01*
X145948320Y-94363936D01*
X145904111Y-94365326D01*
X145896497Y-94367538D01*
X145896492Y-94367539D01*
X145884659Y-94370977D01*
X145865296Y-94374988D01*
X145862507Y-94375340D01*
X145853069Y-94376532D01*
X145853066Y-94376533D01*
X145845203Y-94377526D01*
X145832254Y-94382653D01*
X145785874Y-94391500D01*
X145604513Y-94391500D01*
X145598061Y-94392872D01*
X145598056Y-94392872D01*
X145511113Y-94411353D01*
X145417712Y-94431206D01*
X145411682Y-94433891D01*
X145411681Y-94433891D01*
X145249278Y-94506197D01*
X145249276Y-94506198D01*
X145243248Y-94508882D01*
X145088747Y-94621134D01*
X144960960Y-94763056D01*
X144957659Y-94768774D01*
X144886011Y-94892872D01*
X144865473Y-94928444D01*
X144806458Y-95110072D01*
X144786496Y-95300000D01*
X130417899Y-95300000D01*
X130328447Y-95287139D01*
X130328442Y-95287139D01*
X130324000Y-95286500D01*
X126326000Y-95286500D01*
X126322654Y-95286860D01*
X126322649Y-95286860D01*
X126220215Y-95297872D01*
X126220208Y-95297873D01*
X126216851Y-95298234D01*
X126213551Y-95298952D01*
X126213550Y-95298952D01*
X126167790Y-95308906D01*
X126167785Y-95308907D01*
X126164509Y-95309620D01*
X126060343Y-95344290D01*
X125937388Y-95423308D01*
X125933993Y-95426250D01*
X125933990Y-95426252D01*
X125924207Y-95434729D01*
X125883732Y-95469801D01*
X125880792Y-95473194D01*
X125793919Y-95573450D01*
X125793917Y-95573453D01*
X125788018Y-95580261D01*
X125784274Y-95588459D01*
X125781656Y-95594191D01*
X125727302Y-95713210D01*
X125726034Y-95717529D01*
X125709660Y-95773295D01*
X125707300Y-95781331D01*
X125706660Y-95785780D01*
X125706659Y-95785786D01*
X125687716Y-95917540D01*
X125686500Y-95926000D01*
X125686500Y-100774000D01*
X125058500Y-100774000D01*
X125058500Y-88384500D01*
X125078502Y-88316379D01*
X125132158Y-88269886D01*
X125184500Y-88258500D01*
X194965500Y-88258500D01*
X195033621Y-88278502D01*
G37*
%TD.AperFunction*%
%TD*%
%TA.AperFunction,Conductor*%
%TO.N,Net-(Q1-Pad1)*%
G36*
X188092121Y-99720002D02*
G01*
X188138614Y-99773658D01*
X188150000Y-99826000D01*
X188150000Y-100050000D01*
X188874000Y-100050000D01*
X188942121Y-100070002D01*
X188988614Y-100123658D01*
X189000000Y-100176000D01*
X189000000Y-100574000D01*
X188979998Y-100642121D01*
X188926342Y-100688614D01*
X188874000Y-100700000D01*
X188150000Y-100700000D01*
X188150000Y-100824000D01*
X188129998Y-100892121D01*
X188076342Y-100938614D01*
X188024000Y-100950000D01*
X185326000Y-100950000D01*
X185257879Y-100929998D01*
X185211386Y-100876342D01*
X185200000Y-100824000D01*
X185200000Y-99826000D01*
X185220002Y-99757879D01*
X185273658Y-99711386D01*
X185326000Y-99700000D01*
X188024000Y-99700000D01*
X188092121Y-99720002D01*
G37*
%TD.AperFunction*%
%TD*%
%TA.AperFunction,Conductor*%
%TO.N,+BATT*%
G36*
X130392121Y-95820002D02*
G01*
X130438614Y-95873658D01*
X130450000Y-95926000D01*
X130450000Y-97174000D01*
X130429998Y-97242121D01*
X130376342Y-97288614D01*
X130324000Y-97300000D01*
X128000000Y-97300000D01*
X128000000Y-100774000D01*
X127979998Y-100842121D01*
X127926342Y-100888614D01*
X127874000Y-100900000D01*
X126326000Y-100900000D01*
X126257879Y-100879998D01*
X126211386Y-100826342D01*
X126200000Y-100774000D01*
X126200000Y-95926000D01*
X126220002Y-95857879D01*
X126273658Y-95811386D01*
X126326000Y-95800000D01*
X130324000Y-95800000D01*
X130392121Y-95820002D01*
G37*
%TD.AperFunction*%
%TD*%
M02*
