%TF.GenerationSoftware,KiCad,Pcbnew,(6.0.7-1)-1*%
%TF.CreationDate,2024-09-17T13:20:57+05:30*%
%TF.ProjectId,DIY_BMS,4449595f-424d-4532-9e6b-696361645f70,rev?*%
%TF.SameCoordinates,Original*%
%TF.FileFunction,Soldermask,Bot*%
%TF.FilePolarity,Negative*%
%FSLAX46Y46*%
G04 Gerber Fmt 4.6, Leading zero omitted, Abs format (unit mm)*
G04 Created by KiCad (PCBNEW (6.0.7-1)-1) date 2024-09-17 13:20:57*
%MOMM*%
%LPD*%
G01*
G04 APERTURE LIST*
G04 Aperture macros list*
%AMRoundRect*
0 Rectangle with rounded corners*
0 $1 Rounding radius*
0 $2 $3 $4 $5 $6 $7 $8 $9 X,Y pos of 4 corners*
0 Add a 4 corners polygon primitive as box body*
4,1,4,$2,$3,$4,$5,$6,$7,$8,$9,$2,$3,0*
0 Add four circle primitives for the rounded corners*
1,1,$1+$1,$2,$3*
1,1,$1+$1,$4,$5*
1,1,$1+$1,$6,$7*
1,1,$1+$1,$8,$9*
0 Add four rect primitives between the rounded corners*
20,1,$1+$1,$2,$3,$4,$5,0*
20,1,$1+$1,$4,$5,$6,$7,0*
20,1,$1+$1,$6,$7,$8,$9,0*
20,1,$1+$1,$8,$9,$2,$3,0*%
G04 Aperture macros list end*
%ADD10R,1.700000X1.700000*%
%ADD11O,1.700000X1.700000*%
%ADD12R,1.000000X1.000000*%
%ADD13C,2.400000*%
%ADD14O,2.400000X2.400000*%
%ADD15R,1.700000X0.650000*%
%ADD16RoundRect,0.250000X0.450000X-0.350000X0.450000X0.350000X-0.450000X0.350000X-0.450000X-0.350000X0*%
%ADD17RoundRect,0.250000X-0.350000X-0.450000X0.350000X-0.450000X0.350000X0.450000X-0.350000X0.450000X0*%
%ADD18RoundRect,0.250000X-0.475000X0.337500X-0.475000X-0.337500X0.475000X-0.337500X0.475000X0.337500X0*%
%ADD19RoundRect,0.150000X-0.587500X-0.150000X0.587500X-0.150000X0.587500X0.150000X-0.587500X0.150000X0*%
%ADD20RoundRect,0.250000X0.337500X0.475000X-0.337500X0.475000X-0.337500X-0.475000X0.337500X-0.475000X0*%
%ADD21RoundRect,0.250000X-0.450000X0.350000X-0.450000X-0.350000X0.450000X-0.350000X0.450000X0.350000X0*%
%ADD22RoundRect,0.150000X-0.150000X0.825000X-0.150000X-0.825000X0.150000X-0.825000X0.150000X0.825000X0*%
G04 APERTURE END LIST*
D10*
%TO.C,TH1*%
X149347000Y-106426000D03*
D11*
X151887000Y-106426000D03*
%TD*%
D10*
%TO.C,J1*%
X127101600Y-99999800D03*
D11*
X127101600Y-102539800D03*
%TD*%
D10*
%TO.C,J2*%
X155966000Y-106426000D03*
D11*
X158506000Y-106426000D03*
X161046000Y-106426000D03*
X163586000Y-106426000D03*
%TD*%
D12*
%TO.C,GND*%
X144272000Y-93472000D03*
%TD*%
D10*
%TO.C,J3*%
X165593000Y-90165000D03*
D11*
X165593000Y-92705000D03*
X163053000Y-90165000D03*
X163053000Y-92705000D03*
X160513000Y-90165000D03*
X160513000Y-92705000D03*
%TD*%
D13*
%TO.C,R1*%
X132842000Y-99599800D03*
D14*
X193802000Y-99599800D03*
%TD*%
D15*
%TO.C,U3*%
X141384000Y-100711000D03*
X141384000Y-99441000D03*
X141384000Y-98171000D03*
X141384000Y-96901000D03*
X148684000Y-96901000D03*
X148684000Y-98171000D03*
X148684000Y-99441000D03*
X148684000Y-100711000D03*
%TD*%
D16*
%TO.C,R7*%
X185928000Y-100314000D03*
X185928000Y-98314000D03*
%TD*%
D17*
%TO.C,R5*%
X129810000Y-96520000D03*
X131810000Y-96520000D03*
%TD*%
D18*
%TO.C,C5*%
X161544000Y-98276500D03*
X161544000Y-100351500D03*
%TD*%
D19*
%TO.C,Q1*%
X188290500Y-100364000D03*
X188290500Y-98464000D03*
X190165500Y-99414000D03*
%TD*%
D18*
%TO.C,C4*%
X130128800Y-99038500D03*
X130128800Y-101113500D03*
%TD*%
D20*
%TO.C,C6*%
X146833500Y-102870000D03*
X144758500Y-102870000D03*
%TD*%
D21*
%TO.C,R6*%
X135890000Y-99076000D03*
X135890000Y-101076000D03*
%TD*%
D12*
%TO.C,TP1*%
X133858000Y-96520000D03*
%TD*%
D22*
%TO.C,U2*%
X163703000Y-97855000D03*
X164973000Y-97855000D03*
X166243000Y-97855000D03*
X167513000Y-97855000D03*
X167513000Y-102805000D03*
X166243000Y-102805000D03*
X164973000Y-102805000D03*
X163703000Y-102805000D03*
%TD*%
M02*
