%TF.GenerationSoftware,KiCad,Pcbnew,(6.0.7-1)-1*%
%TF.CreationDate,2024-09-17T13:20:57+05:30*%
%TF.ProjectId,DIY_BMS,4449595f-424d-4532-9e6b-696361645f70,rev?*%
%TF.SameCoordinates,Original*%
%TF.FileFunction,Copper,L1,Top*%
%TF.FilePolarity,Positive*%
%FSLAX46Y46*%
G04 Gerber Fmt 4.6, Leading zero omitted, Abs format (unit mm)*
G04 Created by KiCad (PCBNEW (6.0.7-1)-1) date 2024-09-17 13:20:57*
%MOMM*%
%LPD*%
G01*
G04 APERTURE LIST*
G04 Aperture macros list*
%AMRoundRect*
0 Rectangle with rounded corners*
0 $1 Rounding radius*
0 $2 $3 $4 $5 $6 $7 $8 $9 X,Y pos of 4 corners*
0 Add a 4 corners polygon primitive as box body*
4,1,4,$2,$3,$4,$5,$6,$7,$8,$9,$2,$3,0*
0 Add four circle primitives for the rounded corners*
1,1,$1+$1,$2,$3*
1,1,$1+$1,$4,$5*
1,1,$1+$1,$6,$7*
1,1,$1+$1,$8,$9*
0 Add four rect primitives between the rounded corners*
20,1,$1+$1,$2,$3,$4,$5,0*
20,1,$1+$1,$4,$5,$6,$7,0*
20,1,$1+$1,$6,$7,$8,$9,0*
20,1,$1+$1,$8,$9,$2,$3,0*%
G04 Aperture macros list end*
%TA.AperFunction,SMDPad,CuDef*%
%ADD10R,1.800000X3.500000*%
%TD*%
%TA.AperFunction,SMDPad,CuDef*%
%ADD11RoundRect,0.250000X0.400000X1.450000X-0.400000X1.450000X-0.400000X-1.450000X0.400000X-1.450000X0*%
%TD*%
%TA.AperFunction,SMDPad,CuDef*%
%ADD12RoundRect,0.250000X0.350000X0.450000X-0.350000X0.450000X-0.350000X-0.450000X0.350000X-0.450000X0*%
%TD*%
%TA.AperFunction,ComponentPad*%
%ADD13R,1.700000X1.700000*%
%TD*%
%TA.AperFunction,ComponentPad*%
%ADD14O,1.700000X1.700000*%
%TD*%
%TA.AperFunction,SMDPad,CuDef*%
%ADD15RoundRect,0.250000X-0.350000X-0.450000X0.350000X-0.450000X0.350000X0.450000X-0.350000X0.450000X0*%
%TD*%
%TA.AperFunction,SMDPad,CuDef*%
%ADD16RoundRect,0.250000X0.325000X0.450000X-0.325000X0.450000X-0.325000X-0.450000X0.325000X-0.450000X0*%
%TD*%
%TA.AperFunction,ComponentPad*%
%ADD17R,1.000000X1.000000*%
%TD*%
%TA.AperFunction,SMDPad,CuDef*%
%ADD18RoundRect,0.250000X-0.475000X0.337500X-0.475000X-0.337500X0.475000X-0.337500X0.475000X0.337500X0*%
%TD*%
%TA.AperFunction,SMDPad,CuDef*%
%ADD19RoundRect,0.250000X0.450000X-0.325000X0.450000X0.325000X-0.450000X0.325000X-0.450000X-0.325000X0*%
%TD*%
%TA.AperFunction,ComponentPad*%
%ADD20C,2.400000*%
%TD*%
%TA.AperFunction,ComponentPad*%
%ADD21O,2.400000X2.400000*%
%TD*%
%TA.AperFunction,SMDPad,CuDef*%
%ADD22RoundRect,0.250000X0.475000X-0.337500X0.475000X0.337500X-0.475000X0.337500X-0.475000X-0.337500X0*%
%TD*%
%TA.AperFunction,SMDPad,CuDef*%
%ADD23R,1.560000X0.650000*%
%TD*%
%TA.AperFunction,ViaPad*%
%ADD24C,0.800000*%
%TD*%
%TA.AperFunction,Conductor*%
%ADD25C,0.450000*%
%TD*%
%TA.AperFunction,Conductor*%
%ADD26C,0.250000*%
%TD*%
G04 APERTURE END LIST*
D10*
%TO.P,D1,1,K*%
%TO.N,Net-(D1-Pad1)*%
X127051600Y-91012000D03*
%TO.P,D1,2,A*%
%TO.N,+BATT*%
X127051600Y-96012000D03*
%TD*%
D11*
%TO.P,F1,1*%
%TO.N,Net-(C2-Pad1)*%
X134305000Y-90962000D03*
%TO.P,F1,2*%
%TO.N,Net-(D1-Pad1)*%
X129855000Y-90962000D03*
%TD*%
D12*
%TO.P,R3,1*%
%TO.N,3V3*%
X146542000Y-105918000D03*
%TO.P,R3,2*%
%TO.N,Net-(J3-Pad5)*%
X144542000Y-105918000D03*
%TD*%
D13*
%TO.P,TH1,1*%
%TO.N,3V3*%
X149347000Y-106426000D03*
D14*
%TO.P,TH1,2*%
%TO.N,Net-(J3-Pad5)*%
X151887000Y-106426000D03*
%TD*%
D15*
%TO.P,R9,1*%
%TO.N,3V3*%
X155210000Y-89408000D03*
%TO.P,R9,2*%
%TO.N,Net-(J3-Pad3)*%
X157210000Y-89408000D03*
%TD*%
D13*
%TO.P,J1,1,Pin_1*%
%TO.N,+BATT*%
X127101600Y-99999800D03*
D14*
%TO.P,J1,2,Pin_2*%
%TO.N,GND*%
X127101600Y-102539800D03*
%TD*%
D15*
%TO.P,R8,1*%
%TO.N,3V3*%
X155226000Y-91440000D03*
%TO.P,R8,2*%
%TO.N,Net-(J3-Pad4)*%
X157226000Y-91440000D03*
%TD*%
D13*
%TO.P,J2,1,Pin_1*%
%TO.N,Net-(J2-Pad1)*%
X155966000Y-106426000D03*
D14*
%TO.P,J2,2,Pin_2*%
%TO.N,Net-(J2-Pad2)*%
X158506000Y-106426000D03*
%TO.P,J2,3,Pin_3*%
%TO.N,Net-(J2-Pad3)*%
X161046000Y-106426000D03*
%TO.P,J2,4,Pin_4*%
%TO.N,Net-(J2-Pad4)*%
X163586000Y-106426000D03*
%TD*%
D15*
%TO.P,R2,1*%
%TO.N,Net-(D2-Pad1)*%
X132350000Y-103399800D03*
%TO.P,R2,2*%
%TO.N,Net-(Q1-Pad3)*%
X134350000Y-103399800D03*
%TD*%
D16*
%TO.P,D3,1,K*%
%TO.N,Net-(D3-Pad1)*%
X153171000Y-93472000D03*
%TO.P,D3,2,A*%
%TO.N,Net-(D3-Pad2)*%
X151121000Y-93472000D03*
%TD*%
D17*
%TO.P,GND,1,1*%
%TO.N,GND*%
X144272000Y-93472000D03*
%TD*%
D12*
%TO.P,R10,1*%
%TO.N,GND*%
X157226000Y-93472000D03*
%TO.P,R10,2*%
%TO.N,Net-(D3-Pad1)*%
X155226000Y-93472000D03*
%TD*%
%TO.P,R4,1*%
%TO.N,Net-(J3-Pad5)*%
X142478000Y-105918000D03*
%TO.P,R4,2*%
%TO.N,GND*%
X140478000Y-105918000D03*
%TD*%
D13*
%TO.P,J3,1,Pin_1*%
%TO.N,Net-(D3-Pad2)*%
X165593000Y-90165000D03*
D14*
%TO.P,J3,2,Pin_2*%
%TO.N,3V3*%
X165593000Y-92705000D03*
%TO.P,J3,3,Pin_3*%
%TO.N,Net-(J3-Pad3)*%
X163053000Y-90165000D03*
%TO.P,J3,4,Pin_4*%
%TO.N,Net-(J3-Pad4)*%
X163053000Y-92705000D03*
%TO.P,J3,5,Pin_5*%
%TO.N,Net-(J3-Pad5)*%
X160513000Y-90165000D03*
%TO.P,J3,6,Pin_6*%
%TO.N,GND*%
X160513000Y-92705000D03*
%TD*%
D18*
%TO.P,C3,1*%
%TO.N,3V3*%
X146360000Y-91432500D03*
%TO.P,C3,2*%
%TO.N,GND*%
X146360000Y-93507500D03*
%TD*%
D19*
%TO.P,D2,1,K*%
%TO.N,Net-(D2-Pad1)*%
X130048000Y-103479800D03*
%TO.P,D2,2,A*%
%TO.N,Net-(C2-Pad1)*%
X130048000Y-101429800D03*
%TD*%
D20*
%TO.P,R1,1*%
%TO.N,Net-(C2-Pad1)*%
X132842000Y-99599800D03*
D21*
%TO.P,R1,2*%
%TO.N,Net-(Q1-Pad3)*%
X193802000Y-99599800D03*
%TD*%
D22*
%TO.P,C1,1*%
%TO.N,Net-(C1-Pad1)*%
X137160000Y-91461500D03*
%TO.P,C1,2*%
%TO.N,Net-(C1-Pad2)*%
X137160000Y-89386500D03*
%TD*%
D23*
%TO.P,U1,1,VOUT*%
%TO.N,3V3*%
X144108600Y-91502600D03*
%TO.P,U1,2,GND*%
%TO.N,GND*%
X144108600Y-90552600D03*
%TO.P,U1,3,ENABLE*%
%TO.N,Net-(C2-Pad1)*%
X144108600Y-89602600D03*
%TO.P,U1,4,CPUMP-*%
%TO.N,Net-(C1-Pad2)*%
X141408600Y-89602600D03*
%TO.P,U1,5,VIN*%
%TO.N,Net-(C2-Pad1)*%
X141408600Y-90552600D03*
%TO.P,U1,6,CPUMP+*%
%TO.N,Net-(C1-Pad1)*%
X141408600Y-91502600D03*
%TD*%
D18*
%TO.P,C2,1*%
%TO.N,Net-(C2-Pad1)*%
X139260000Y-90924000D03*
%TO.P,C2,2*%
%TO.N,GND*%
X139260000Y-92999000D03*
%TD*%
D17*
%TO.P,TP1,1,1*%
%TO.N,Net-(C4-Pad1)*%
X133858000Y-96520000D03*
%TD*%
D24*
%TO.N,GND*%
X137400000Y-93000000D03*
X157250000Y-93450000D03*
X140450000Y-105950000D03*
X146360000Y-93507500D03*
%TO.N,3V3*%
X153200000Y-100750000D03*
X150750000Y-100750000D03*
X161550000Y-98250000D03*
X154550000Y-100750000D03*
X151950000Y-100750000D03*
X164100000Y-95950000D03*
X156100000Y-100750000D03*
%TO.N,Net-(D3-Pad2)*%
X151150000Y-96350000D03*
%TO.N,Net-(J3-Pad3)*%
X167400000Y-95800000D03*
%TO.N,Net-(J3-Pad4)*%
X164800299Y-95050299D03*
%TO.N,Net-(J3-Pad5)*%
X143002000Y-99822000D03*
X145700000Y-95300000D03*
%TO.N,Net-(Q1-Pad1)*%
X181610000Y-100330000D03*
X143764000Y-98298000D03*
%TO.N,Net-(Q1-Pad3)*%
X141850000Y-103500000D03*
X143800000Y-104550000D03*
%TD*%
D25*
%TO.N,Net-(C1-Pad1)*%
X140961200Y-91950000D02*
X141408600Y-91502600D01*
X137160000Y-91461500D02*
X137648500Y-91950000D01*
X137648500Y-91950000D02*
X140961200Y-91950000D01*
%TO.N,Net-(C1-Pad2)*%
X137376100Y-89602600D02*
X141408600Y-89602600D01*
X137160000Y-89386500D02*
X137376100Y-89602600D01*
%TO.N,Net-(C2-Pad1)*%
X139631400Y-90552600D02*
X139260000Y-90924000D01*
D26*
X144108600Y-89602600D02*
X143078600Y-89602600D01*
X142128600Y-90552600D02*
X141408600Y-90552600D01*
D25*
X141408600Y-90552600D02*
X139631400Y-90552600D01*
X134867000Y-90400000D02*
X134305000Y-90962000D01*
X138736000Y-90400000D02*
X134867000Y-90400000D01*
D26*
X143078600Y-89602600D02*
X142128600Y-90552600D01*
D25*
X139260000Y-90924000D02*
X138736000Y-90400000D01*
%TO.N,GND*%
X142700000Y-92800000D02*
X143372000Y-93472000D01*
X142250000Y-93000000D02*
X142700000Y-92550000D01*
X142700000Y-92550000D02*
X142700000Y-92800000D01*
X143372000Y-93472000D02*
X144272000Y-93472000D01*
X142947400Y-90552600D02*
X144108600Y-90552600D01*
X144307500Y-93507500D02*
X144272000Y-93472000D01*
X137400000Y-93000000D02*
X142250000Y-93000000D01*
X146360000Y-93507500D02*
X144307500Y-93507500D01*
X142700000Y-92550000D02*
X142700000Y-90800000D01*
X142700000Y-90800000D02*
X142947400Y-90552600D01*
%TO.N,3V3*%
X144108600Y-91502600D02*
X146289900Y-91502600D01*
X146289900Y-91502600D02*
X146360000Y-91432500D01*
D26*
X165593000Y-95393000D02*
X165593000Y-92705000D01*
X165600000Y-95400000D02*
X165593000Y-95393000D01*
X165050000Y-95950000D02*
X165600000Y-95400000D01*
X164100000Y-95950000D02*
X165050000Y-95950000D01*
%TO.N,Net-(D3-Pad1)*%
X153171000Y-93472000D02*
X155226000Y-93472000D01*
%TO.N,Net-(D3-Pad2)*%
X151150000Y-96350000D02*
X151121000Y-96321000D01*
X151121000Y-96321000D02*
X151121000Y-93472000D01*
%TO.N,Net-(J3-Pad3)*%
X159142000Y-91340000D02*
X157210000Y-89408000D01*
X164228000Y-91340000D02*
X163053000Y-90165000D01*
X167400000Y-95800000D02*
X167132000Y-95532000D01*
X166016000Y-91340000D02*
X164228000Y-91340000D01*
X167132000Y-95532000D02*
X167132000Y-92456000D01*
X167132000Y-92456000D02*
X166016000Y-91340000D01*
X163053000Y-90165000D02*
X161878000Y-91340000D01*
X161878000Y-91340000D02*
X159142000Y-91340000D01*
%TO.N,Net-(J3-Pad4)*%
X157226000Y-91440000D02*
X159766000Y-93980000D01*
X159766000Y-93980000D02*
X161778000Y-93980000D01*
X164800299Y-95050299D02*
X164800299Y-94452299D01*
X161778000Y-93980000D02*
X163053000Y-92705000D01*
X164800299Y-94452299D02*
X163053000Y-92705000D01*
%TO.N,Net-(J3-Pad5)*%
X143002000Y-99822000D02*
X143002000Y-105394000D01*
X150211000Y-104750000D02*
X145710000Y-104750000D01*
X143002000Y-105394000D02*
X142478000Y-105918000D01*
X145710000Y-104750000D02*
X144542000Y-105918000D01*
X143002000Y-98034695D02*
X143002000Y-99822000D01*
X145700000Y-95336695D02*
X143002000Y-98034695D01*
X151887000Y-106426000D02*
X150211000Y-104750000D01*
X145700000Y-95300000D02*
X145700000Y-95336695D01*
%TO.N,Net-(Q1-Pad1)*%
X181610000Y-100330000D02*
X179690000Y-102250000D01*
X143764000Y-98806000D02*
X143764000Y-98298000D01*
X179690000Y-102250000D02*
X147208000Y-102250000D01*
X147208000Y-102250000D02*
X143764000Y-98806000D01*
%TO.N,Net-(Q1-Pad3)*%
X144200000Y-104150000D02*
X189251800Y-104150000D01*
X189251800Y-104150000D02*
X193802000Y-99599800D01*
X141749800Y-103399800D02*
X141850000Y-103500000D01*
X143800000Y-104550000D02*
X144200000Y-104150000D01*
X134350000Y-103399800D02*
X141749800Y-103399800D01*
%TD*%
%TA.AperFunction,Conductor*%
%TO.N,3V3*%
G36*
X162442121Y-96820002D02*
G01*
X162488614Y-96873658D01*
X162500000Y-96926000D01*
X162500000Y-98724000D01*
X162479998Y-98792121D01*
X162426342Y-98838614D01*
X162374000Y-98850000D01*
X160550000Y-98850000D01*
X160550000Y-101224000D01*
X160529998Y-101292121D01*
X160476342Y-101338614D01*
X160424000Y-101350000D01*
X158650000Y-101350000D01*
X158650000Y-96800000D01*
X162374000Y-96800000D01*
X162442121Y-96820002D01*
G37*
%TD.AperFunction*%
%TD*%
%TA.AperFunction,Conductor*%
%TO.N,Net-(C2-Pad1)*%
G36*
X134242121Y-98220002D02*
G01*
X134288614Y-98273658D01*
X134300000Y-98326000D01*
X134300000Y-101874000D01*
X134279998Y-101942121D01*
X134226342Y-101988614D01*
X134174000Y-102000000D01*
X129476000Y-102000000D01*
X129407879Y-101979998D01*
X129361386Y-101926342D01*
X129350000Y-101874000D01*
X129350000Y-100946905D01*
X129370002Y-100878784D01*
X129380775Y-100864393D01*
X129393247Y-100850000D01*
X129400000Y-100850000D01*
X129400000Y-98200000D01*
X134174000Y-98200000D01*
X134242121Y-98220002D01*
G37*
%TD.AperFunction*%
%TD*%
%TA.AperFunction,Conductor*%
%TO.N,Net-(D2-Pad1)*%
G36*
X132892121Y-102720002D02*
G01*
X132938614Y-102773658D01*
X132950000Y-102826000D01*
X132950000Y-104024000D01*
X132929998Y-104092121D01*
X132876342Y-104138614D01*
X132824000Y-104150000D01*
X129476000Y-104150000D01*
X129407879Y-104129998D01*
X129361386Y-104076342D01*
X129350000Y-104024000D01*
X129350000Y-102826000D01*
X129370002Y-102757879D01*
X129423658Y-102711386D01*
X129476000Y-102700000D01*
X132824000Y-102700000D01*
X132892121Y-102720002D01*
G37*
%TD.AperFunction*%
%TD*%
%TA.AperFunction,Conductor*%
%TO.N,Net-(J3-Pad5)*%
G36*
X143177474Y-105220002D02*
G01*
X143188009Y-105228046D01*
X143188747Y-105228866D01*
X143194089Y-105232747D01*
X143194091Y-105232749D01*
X143322440Y-105326000D01*
X143343248Y-105341118D01*
X143349276Y-105343802D01*
X143349278Y-105343803D01*
X143511681Y-105416109D01*
X143517712Y-105418794D01*
X143611113Y-105438647D01*
X143698056Y-105457128D01*
X143698061Y-105457128D01*
X143704513Y-105458500D01*
X143895487Y-105458500D01*
X143901939Y-105457128D01*
X143901944Y-105457128D01*
X143988887Y-105438647D01*
X144082288Y-105418794D01*
X144088319Y-105416109D01*
X144250722Y-105343803D01*
X144250724Y-105343802D01*
X144256752Y-105341118D01*
X144277560Y-105326000D01*
X144405909Y-105232749D01*
X144405911Y-105232747D01*
X144406634Y-105232222D01*
X144406636Y-105232221D01*
X144411253Y-105228866D01*
X144411866Y-105229710D01*
X144470342Y-105201647D01*
X144490647Y-105200000D01*
X145024000Y-105200000D01*
X145092121Y-105220002D01*
X145138614Y-105273658D01*
X145150000Y-105326000D01*
X145150000Y-106474000D01*
X145129998Y-106542121D01*
X145076342Y-106588614D01*
X145024000Y-106600000D01*
X141976000Y-106600000D01*
X141907879Y-106579998D01*
X141861386Y-106526342D01*
X141850000Y-106474000D01*
X141850000Y-105326000D01*
X141870002Y-105257879D01*
X141923658Y-105211386D01*
X141976000Y-105200000D01*
X143109353Y-105200000D01*
X143177474Y-105220002D01*
G37*
%TD.AperFunction*%
%TD*%
%TA.AperFunction,Conductor*%
%TO.N,Net-(D1-Pad1)*%
G36*
X130492121Y-89220002D02*
G01*
X130538614Y-89273658D01*
X130550000Y-89326000D01*
X130550000Y-92724000D01*
X130529998Y-92792121D01*
X130476342Y-92838614D01*
X130424000Y-92850000D01*
X126226000Y-92850000D01*
X126157879Y-92829998D01*
X126111386Y-92776342D01*
X126100000Y-92724000D01*
X126100000Y-89326000D01*
X126120002Y-89257879D01*
X126173658Y-89211386D01*
X126226000Y-89200000D01*
X130424000Y-89200000D01*
X130492121Y-89220002D01*
G37*
%TD.AperFunction*%
%TD*%
%TA.AperFunction,Conductor*%
%TO.N,Net-(C2-Pad1)*%
G36*
X134892121Y-89270002D02*
G01*
X134938614Y-89323658D01*
X134950000Y-89376000D01*
X134950000Y-95124000D01*
X134929998Y-95192121D01*
X134876342Y-95238614D01*
X134824000Y-95250000D01*
X132750000Y-95250000D01*
X132750000Y-98700000D01*
X129400000Y-98700000D01*
X129400000Y-94176000D01*
X129420002Y-94107879D01*
X129473658Y-94061386D01*
X129526000Y-94050000D01*
X133250000Y-94050000D01*
X133250000Y-89376000D01*
X133270002Y-89307879D01*
X133323658Y-89261386D01*
X133376000Y-89250000D01*
X134824000Y-89250000D01*
X134892121Y-89270002D01*
G37*
%TD.AperFunction*%
%TD*%
%TA.AperFunction,Conductor*%
%TO.N,+BATT*%
G36*
X128092121Y-94220002D02*
G01*
X128138614Y-94273658D01*
X128150000Y-94326000D01*
X128150000Y-100824000D01*
X128129998Y-100892121D01*
X128076342Y-100938614D01*
X128024000Y-100950000D01*
X126176000Y-100950000D01*
X126107879Y-100929998D01*
X126061386Y-100876342D01*
X126050000Y-100824000D01*
X126050000Y-94326000D01*
X126070002Y-94257879D01*
X126123658Y-94211386D01*
X126176000Y-94200000D01*
X128024000Y-94200000D01*
X128092121Y-94220002D01*
G37*
%TD.AperFunction*%
%TD*%
%TA.AperFunction,Conductor*%
%TO.N,3V3*%
G36*
X149964527Y-105403502D02*
G01*
X149985501Y-105420405D01*
X150213095Y-105647999D01*
X150247121Y-105710311D01*
X150250000Y-105737094D01*
X150250000Y-107224000D01*
X150229998Y-107292121D01*
X150176342Y-107338614D01*
X150124000Y-107350000D01*
X146026000Y-107350000D01*
X145957879Y-107329998D01*
X145911386Y-107276342D01*
X145900000Y-107224000D01*
X145900000Y-105509500D01*
X145920002Y-105441379D01*
X145973658Y-105394886D01*
X146026000Y-105383500D01*
X149896406Y-105383500D01*
X149964527Y-105403502D01*
G37*
%TD.AperFunction*%
%TD*%
%TA.AperFunction,Conductor*%
%TO.N,3V3*%
G36*
X155792121Y-88620002D02*
G01*
X155838614Y-88673658D01*
X155850000Y-88726000D01*
X155850000Y-90600000D01*
X147350000Y-90600000D01*
X147350000Y-92050000D01*
X145726000Y-92050000D01*
X145657879Y-92029998D01*
X145611386Y-91976342D01*
X145600000Y-91924000D01*
X145600000Y-88726000D01*
X145620002Y-88657879D01*
X145673658Y-88611386D01*
X145726000Y-88600000D01*
X155724000Y-88600000D01*
X155792121Y-88620002D01*
G37*
%TD.AperFunction*%
%TD*%
%TA.AperFunction,Conductor*%
%TO.N,3V3*%
G36*
X156099774Y-90620002D02*
G01*
X156146267Y-90673658D01*
X156156371Y-90743932D01*
X156151248Y-90765661D01*
X156128203Y-90835139D01*
X156117500Y-90939600D01*
X156117500Y-91940400D01*
X156128474Y-92046166D01*
X156184450Y-92213946D01*
X156196148Y-92232849D01*
X156214986Y-92301299D01*
X156193826Y-92369069D01*
X156139386Y-92414641D01*
X156068950Y-92423546D01*
X156022888Y-92406412D01*
X155904968Y-92333725D01*
X155904966Y-92333724D01*
X155898738Y-92329885D01*
X155738254Y-92276655D01*
X155737389Y-92276368D01*
X155737387Y-92276368D01*
X155730861Y-92274203D01*
X155724025Y-92273503D01*
X155724022Y-92273502D01*
X155680969Y-92269091D01*
X155626400Y-92263500D01*
X154825600Y-92263500D01*
X154822354Y-92263837D01*
X154822350Y-92263837D01*
X154726692Y-92273762D01*
X154726688Y-92273763D01*
X154719834Y-92274474D01*
X154713298Y-92276655D01*
X154713296Y-92276655D01*
X154639430Y-92301299D01*
X154552054Y-92330450D01*
X154401652Y-92423522D01*
X154276695Y-92548697D01*
X154274830Y-92546836D01*
X154226933Y-92580783D01*
X154156009Y-92584004D01*
X154095100Y-92548658D01*
X154094478Y-92547652D01*
X153969303Y-92422695D01*
X153956237Y-92414641D01*
X153824968Y-92333725D01*
X153824966Y-92333724D01*
X153818738Y-92329885D01*
X153658254Y-92276655D01*
X153657389Y-92276368D01*
X153657387Y-92276368D01*
X153650861Y-92274203D01*
X153644025Y-92273503D01*
X153644022Y-92273502D01*
X153600969Y-92269091D01*
X153546400Y-92263500D01*
X152795600Y-92263500D01*
X152792354Y-92263837D01*
X152792350Y-92263837D01*
X152696692Y-92273762D01*
X152696688Y-92273763D01*
X152689834Y-92274474D01*
X152683298Y-92276655D01*
X152683296Y-92276655D01*
X152609430Y-92301299D01*
X152522054Y-92330450D01*
X152371652Y-92423522D01*
X152246695Y-92548697D01*
X152244094Y-92552916D01*
X152186970Y-92593417D01*
X152116047Y-92596649D01*
X152054635Y-92561024D01*
X152048078Y-92553470D01*
X152044478Y-92547652D01*
X151919303Y-92422695D01*
X151906237Y-92414641D01*
X151774968Y-92333725D01*
X151774966Y-92333724D01*
X151768738Y-92329885D01*
X151608254Y-92276655D01*
X151607389Y-92276368D01*
X151607387Y-92276368D01*
X151600861Y-92274203D01*
X151594025Y-92273503D01*
X151594022Y-92273502D01*
X151550969Y-92269091D01*
X151496400Y-92263500D01*
X150745600Y-92263500D01*
X150742354Y-92263837D01*
X150742350Y-92263837D01*
X150646692Y-92273762D01*
X150646688Y-92273763D01*
X150639834Y-92274474D01*
X150633298Y-92276655D01*
X150633296Y-92276655D01*
X150559430Y-92301299D01*
X150472054Y-92330450D01*
X150321652Y-92423522D01*
X150196695Y-92548697D01*
X150103885Y-92699262D01*
X150101581Y-92706209D01*
X150055197Y-92846054D01*
X150048203Y-92867139D01*
X150037500Y-92971600D01*
X150037500Y-93972400D01*
X150037837Y-93975646D01*
X150037837Y-93975650D01*
X150041027Y-94006389D01*
X150048474Y-94078166D01*
X150104450Y-94245946D01*
X150197522Y-94396348D01*
X150322697Y-94521305D01*
X150328927Y-94525145D01*
X150328928Y-94525146D01*
X150427616Y-94585978D01*
X150475109Y-94638750D01*
X150487500Y-94693238D01*
X150487500Y-95679683D01*
X150467498Y-95747804D01*
X150455137Y-95763992D01*
X150410960Y-95813056D01*
X150315473Y-95978444D01*
X150256458Y-96160072D01*
X150236496Y-96350000D01*
X150256458Y-96539928D01*
X150315473Y-96721556D01*
X150410960Y-96886944D01*
X150538747Y-97028866D01*
X150693248Y-97141118D01*
X150699276Y-97143802D01*
X150699278Y-97143803D01*
X150861681Y-97216109D01*
X150867712Y-97218794D01*
X150961112Y-97238647D01*
X151048056Y-97257128D01*
X151048061Y-97257128D01*
X151054513Y-97258500D01*
X151245487Y-97258500D01*
X151251939Y-97257128D01*
X151251944Y-97257128D01*
X151338888Y-97238647D01*
X151432288Y-97218794D01*
X151438319Y-97216109D01*
X151600722Y-97143803D01*
X151600724Y-97143802D01*
X151606752Y-97141118D01*
X151761253Y-97028866D01*
X151889040Y-96886944D01*
X151984527Y-96721556D01*
X152043542Y-96539928D01*
X152063504Y-96350000D01*
X152043542Y-96160072D01*
X151984527Y-95978444D01*
X151889040Y-95813056D01*
X151844865Y-95763994D01*
X151786864Y-95699578D01*
X151756146Y-95635571D01*
X151754500Y-95615268D01*
X151754500Y-94693311D01*
X151774502Y-94625190D01*
X151814196Y-94586167D01*
X151920348Y-94520478D01*
X152045305Y-94395303D01*
X152047906Y-94391084D01*
X152105030Y-94350583D01*
X152175953Y-94347351D01*
X152237365Y-94382976D01*
X152243922Y-94390530D01*
X152247522Y-94396348D01*
X152372697Y-94521305D01*
X152378927Y-94525145D01*
X152378928Y-94525146D01*
X152516090Y-94609694D01*
X152523262Y-94614115D01*
X152597535Y-94638750D01*
X152684611Y-94667632D01*
X152684613Y-94667632D01*
X152691139Y-94669797D01*
X152697975Y-94670497D01*
X152697978Y-94670498D01*
X152741031Y-94674909D01*
X152795600Y-94680500D01*
X153546400Y-94680500D01*
X153549646Y-94680163D01*
X153549650Y-94680163D01*
X153645308Y-94670238D01*
X153645312Y-94670237D01*
X153652166Y-94669526D01*
X153658702Y-94667345D01*
X153658704Y-94667345D01*
X153805951Y-94618219D01*
X153819946Y-94613550D01*
X153970348Y-94520478D01*
X154095305Y-94395303D01*
X154097170Y-94397164D01*
X154145067Y-94363217D01*
X154215991Y-94359996D01*
X154276900Y-94395342D01*
X154277522Y-94396348D01*
X154281236Y-94400055D01*
X154281239Y-94400059D01*
X154336158Y-94454882D01*
X154402697Y-94521305D01*
X154408927Y-94525145D01*
X154408928Y-94525146D01*
X154546090Y-94609694D01*
X154553262Y-94614115D01*
X154627535Y-94638750D01*
X154714611Y-94667632D01*
X154714613Y-94667632D01*
X154721139Y-94669797D01*
X154727975Y-94670497D01*
X154727978Y-94670498D01*
X154771031Y-94674909D01*
X154825600Y-94680500D01*
X155626400Y-94680500D01*
X155629646Y-94680163D01*
X155629650Y-94680163D01*
X155725308Y-94670238D01*
X155725312Y-94670237D01*
X155732166Y-94669526D01*
X155738702Y-94667345D01*
X155738704Y-94667345D01*
X155885951Y-94618219D01*
X155899946Y-94613550D01*
X156050348Y-94520478D01*
X156136784Y-94433891D01*
X156199066Y-94399812D01*
X156269886Y-94404815D01*
X156314975Y-94433736D01*
X156336158Y-94454882D01*
X156402697Y-94521305D01*
X156408927Y-94525145D01*
X156408928Y-94525146D01*
X156546090Y-94609694D01*
X156553262Y-94614115D01*
X156627535Y-94638750D01*
X156714611Y-94667632D01*
X156714613Y-94667632D01*
X156721139Y-94669797D01*
X156727975Y-94670497D01*
X156727978Y-94670498D01*
X156771031Y-94674909D01*
X156825600Y-94680500D01*
X157626400Y-94680500D01*
X157629646Y-94680163D01*
X157629650Y-94680163D01*
X157725308Y-94670238D01*
X157725312Y-94670237D01*
X157732166Y-94669526D01*
X157738702Y-94667345D01*
X157738704Y-94667345D01*
X157885951Y-94618219D01*
X157899946Y-94613550D01*
X158050348Y-94520478D01*
X158175305Y-94395303D01*
X158179146Y-94389072D01*
X158264275Y-94250968D01*
X158264276Y-94250966D01*
X158268115Y-94244738D01*
X158323797Y-94076861D01*
X158327565Y-94040091D01*
X158328909Y-94026969D01*
X158334500Y-93972400D01*
X158334500Y-93748594D01*
X158354502Y-93680473D01*
X158408158Y-93633980D01*
X158478432Y-93623876D01*
X158543012Y-93653370D01*
X158549595Y-93659499D01*
X158613095Y-93722999D01*
X158647121Y-93785311D01*
X158650000Y-93812094D01*
X158650000Y-101350000D01*
X147476000Y-101350000D01*
X147407879Y-101329998D01*
X147361386Y-101276342D01*
X147350000Y-101224000D01*
X147350000Y-94454882D01*
X147370002Y-94386761D01*
X147386827Y-94365864D01*
X147429134Y-94323483D01*
X147434305Y-94318303D01*
X147438146Y-94312072D01*
X147523275Y-94173968D01*
X147523276Y-94173966D01*
X147527115Y-94167738D01*
X147559526Y-94070022D01*
X147580632Y-94006389D01*
X147580632Y-94006387D01*
X147582797Y-93999861D01*
X147593500Y-93895400D01*
X147593500Y-93119600D01*
X147582526Y-93013834D01*
X147526550Y-92846054D01*
X147433478Y-92695652D01*
X147386982Y-92649237D01*
X147352903Y-92586955D01*
X147350000Y-92560064D01*
X147350000Y-90600000D01*
X156031653Y-90600000D01*
X156099774Y-90620002D01*
G37*
%TD.AperFunction*%
%TD*%
M02*
