%TF.GenerationSoftware,KiCad,Pcbnew,(6.0.7-1)-1*%
%TF.CreationDate,2024-09-17T13:20:57+05:30*%
%TF.ProjectId,DIY_BMS,4449595f-424d-4532-9e6b-696361645f70,rev?*%
%TF.SameCoordinates,Original*%
%TF.FileFunction,Legend,Bot*%
%TF.FilePolarity,Positive*%
%FSLAX46Y46*%
G04 Gerber Fmt 4.6, Leading zero omitted, Abs format (unit mm)*
G04 Created by KiCad (PCBNEW (6.0.7-1)-1) date 2024-09-17 13:20:57*
%MOMM*%
%LPD*%
G01*
G04 APERTURE LIST*
%ADD10C,0.150000*%
%ADD11C,0.120000*%
G04 APERTURE END LIST*
D10*
%TO.C,U3*%
X146111904Y-98202380D02*
X146111904Y-99011904D01*
X146064285Y-99107142D01*
X146016666Y-99154761D01*
X145921428Y-99202380D01*
X145730952Y-99202380D01*
X145635714Y-99154761D01*
X145588095Y-99107142D01*
X145540476Y-99011904D01*
X145540476Y-98202380D01*
X145159523Y-98202380D02*
X144540476Y-98202380D01*
X144873809Y-98583333D01*
X144730952Y-98583333D01*
X144635714Y-98630952D01*
X144588095Y-98678571D01*
X144540476Y-98773809D01*
X144540476Y-99011904D01*
X144588095Y-99107142D01*
X144635714Y-99154761D01*
X144730952Y-99202380D01*
X145016666Y-99202380D01*
X145111904Y-99154761D01*
X145159523Y-99107142D01*
%TO.C,R7*%
X184752380Y-98583333D02*
X184276190Y-98250000D01*
X184752380Y-98011904D02*
X183752380Y-98011904D01*
X183752380Y-98392857D01*
X183800000Y-98488095D01*
X183847619Y-98535714D01*
X183942857Y-98583333D01*
X184085714Y-98583333D01*
X184180952Y-98535714D01*
X184228571Y-98488095D01*
X184276190Y-98392857D01*
X184276190Y-98011904D01*
X183752380Y-98916666D02*
X183752380Y-99583333D01*
X184752380Y-99154761D01*
%TO.C,R5*%
X131366666Y-95402380D02*
X131700000Y-94926190D01*
X131938095Y-95402380D02*
X131938095Y-94402380D01*
X131557142Y-94402380D01*
X131461904Y-94450000D01*
X131414285Y-94497619D01*
X131366666Y-94592857D01*
X131366666Y-94735714D01*
X131414285Y-94830952D01*
X131461904Y-94878571D01*
X131557142Y-94926190D01*
X131938095Y-94926190D01*
X130461904Y-94402380D02*
X130938095Y-94402380D01*
X130985714Y-94878571D01*
X130938095Y-94830952D01*
X130842857Y-94783333D01*
X130604761Y-94783333D01*
X130509523Y-94830952D01*
X130461904Y-94878571D01*
X130414285Y-94973809D01*
X130414285Y-95211904D01*
X130461904Y-95307142D01*
X130509523Y-95354761D01*
X130604761Y-95402380D01*
X130842857Y-95402380D01*
X130938095Y-95354761D01*
X130985714Y-95307142D01*
%TO.C,C5*%
X160221142Y-99147333D02*
X160268761Y-99099714D01*
X160316380Y-98956857D01*
X160316380Y-98861619D01*
X160268761Y-98718761D01*
X160173523Y-98623523D01*
X160078285Y-98575904D01*
X159887809Y-98528285D01*
X159744952Y-98528285D01*
X159554476Y-98575904D01*
X159459238Y-98623523D01*
X159364000Y-98718761D01*
X159316380Y-98861619D01*
X159316380Y-98956857D01*
X159364000Y-99099714D01*
X159411619Y-99147333D01*
X159316380Y-100052095D02*
X159316380Y-99575904D01*
X159792571Y-99528285D01*
X159744952Y-99575904D01*
X159697333Y-99671142D01*
X159697333Y-99909238D01*
X159744952Y-100004476D01*
X159792571Y-100052095D01*
X159887809Y-100099714D01*
X160125904Y-100099714D01*
X160221142Y-100052095D01*
X160268761Y-100004476D01*
X160316380Y-99909238D01*
X160316380Y-99671142D01*
X160268761Y-99575904D01*
X160221142Y-99528285D01*
%TO.C,Q1*%
X189323238Y-102361619D02*
X189418476Y-102314000D01*
X189513714Y-102218761D01*
X189656571Y-102075904D01*
X189751809Y-102028285D01*
X189847047Y-102028285D01*
X189799428Y-102266380D02*
X189894666Y-102218761D01*
X189989904Y-102123523D01*
X190037523Y-101933047D01*
X190037523Y-101599714D01*
X189989904Y-101409238D01*
X189894666Y-101314000D01*
X189799428Y-101266380D01*
X189608952Y-101266380D01*
X189513714Y-101314000D01*
X189418476Y-101409238D01*
X189370857Y-101599714D01*
X189370857Y-101933047D01*
X189418476Y-102123523D01*
X189513714Y-102218761D01*
X189608952Y-102266380D01*
X189799428Y-102266380D01*
X188418476Y-102266380D02*
X188989904Y-102266380D01*
X188704190Y-102266380D02*
X188704190Y-101266380D01*
X188799428Y-101409238D01*
X188894666Y-101504476D01*
X188989904Y-101552095D01*
%TO.C,C4*%
X129207142Y-99283333D02*
X129254761Y-99235714D01*
X129302380Y-99092857D01*
X129302380Y-98997619D01*
X129254761Y-98854761D01*
X129159523Y-98759523D01*
X129064285Y-98711904D01*
X128873809Y-98664285D01*
X128730952Y-98664285D01*
X128540476Y-98711904D01*
X128445238Y-98759523D01*
X128350000Y-98854761D01*
X128302380Y-98997619D01*
X128302380Y-99092857D01*
X128350000Y-99235714D01*
X128397619Y-99283333D01*
X128635714Y-100140476D02*
X129302380Y-100140476D01*
X128254761Y-99902380D02*
X128969047Y-99664285D01*
X128969047Y-100283333D01*
%TO.C,C6*%
X146066666Y-101007142D02*
X146114285Y-101054761D01*
X146257142Y-101102380D01*
X146352380Y-101102380D01*
X146495238Y-101054761D01*
X146590476Y-100959523D01*
X146638095Y-100864285D01*
X146685714Y-100673809D01*
X146685714Y-100530952D01*
X146638095Y-100340476D01*
X146590476Y-100245238D01*
X146495238Y-100150000D01*
X146352380Y-100102380D01*
X146257142Y-100102380D01*
X146114285Y-100150000D01*
X146066666Y-100197619D01*
X145209523Y-100102380D02*
X145400000Y-100102380D01*
X145495238Y-100150000D01*
X145542857Y-100197619D01*
X145638095Y-100340476D01*
X145685714Y-100530952D01*
X145685714Y-100911904D01*
X145638095Y-101007142D01*
X145590476Y-101054761D01*
X145495238Y-101102380D01*
X145304761Y-101102380D01*
X145209523Y-101054761D01*
X145161904Y-101007142D01*
X145114285Y-100911904D01*
X145114285Y-100673809D01*
X145161904Y-100578571D01*
X145209523Y-100530952D01*
X145304761Y-100483333D01*
X145495238Y-100483333D01*
X145590476Y-100530952D01*
X145638095Y-100578571D01*
X145685714Y-100673809D01*
%TO.C,R6*%
X136516666Y-103152380D02*
X136850000Y-102676190D01*
X137088095Y-103152380D02*
X137088095Y-102152380D01*
X136707142Y-102152380D01*
X136611904Y-102200000D01*
X136564285Y-102247619D01*
X136516666Y-102342857D01*
X136516666Y-102485714D01*
X136564285Y-102580952D01*
X136611904Y-102628571D01*
X136707142Y-102676190D01*
X137088095Y-102676190D01*
X135659523Y-102152380D02*
X135850000Y-102152380D01*
X135945238Y-102200000D01*
X135992857Y-102247619D01*
X136088095Y-102390476D01*
X136135714Y-102580952D01*
X136135714Y-102961904D01*
X136088095Y-103057142D01*
X136040476Y-103104761D01*
X135945238Y-103152380D01*
X135754761Y-103152380D01*
X135659523Y-103104761D01*
X135611904Y-103057142D01*
X135564285Y-102961904D01*
X135564285Y-102723809D01*
X135611904Y-102628571D01*
X135659523Y-102580952D01*
X135754761Y-102533333D01*
X135945238Y-102533333D01*
X136040476Y-102580952D01*
X136088095Y-102628571D01*
X136135714Y-102723809D01*
%TO.C,TP1*%
X135119904Y-94524380D02*
X134548476Y-94524380D01*
X134834190Y-95524380D02*
X134834190Y-94524380D01*
X134215142Y-95524380D02*
X134215142Y-94524380D01*
X133834190Y-94524380D01*
X133738952Y-94572000D01*
X133691333Y-94619619D01*
X133643714Y-94714857D01*
X133643714Y-94857714D01*
X133691333Y-94952952D01*
X133738952Y-95000571D01*
X133834190Y-95048190D01*
X134215142Y-95048190D01*
X132691333Y-95524380D02*
X133262761Y-95524380D01*
X132977047Y-95524380D02*
X132977047Y-94524380D01*
X133072285Y-94667238D01*
X133167523Y-94762476D01*
X133262761Y-94810095D01*
%TO.C,U2*%
X165052380Y-99568095D02*
X165861904Y-99568095D01*
X165957142Y-99615714D01*
X166004761Y-99663333D01*
X166052380Y-99758571D01*
X166052380Y-99949047D01*
X166004761Y-100044285D01*
X165957142Y-100091904D01*
X165861904Y-100139523D01*
X165052380Y-100139523D01*
X165147619Y-100568095D02*
X165100000Y-100615714D01*
X165052380Y-100710952D01*
X165052380Y-100949047D01*
X165100000Y-101044285D01*
X165147619Y-101091904D01*
X165242857Y-101139523D01*
X165338095Y-101139523D01*
X165480952Y-101091904D01*
X166052380Y-100520476D01*
X166052380Y-101139523D01*
%TO.C,U3*%
X142284000Y-101561000D02*
X147784000Y-101561000D01*
X142284000Y-101561000D02*
X142284000Y-101356000D01*
X147784000Y-96051000D02*
X147784000Y-96351000D01*
X142284000Y-101356000D02*
X140534000Y-101356000D01*
X147784000Y-101561000D02*
X147784000Y-101261000D01*
X142284000Y-96051000D02*
X147784000Y-96051000D01*
X142284000Y-96051000D02*
X142284000Y-96351000D01*
D11*
%TO.C,R7*%
X186663000Y-99541064D02*
X186663000Y-99086936D01*
X185193000Y-99541064D02*
X185193000Y-99086936D01*
%TO.C,R5*%
X130582936Y-97255000D02*
X131037064Y-97255000D01*
X130582936Y-95785000D02*
X131037064Y-95785000D01*
%TO.C,C5*%
X160809000Y-99052748D02*
X160809000Y-99575252D01*
X162279000Y-99052748D02*
X162279000Y-99575252D01*
%TO.C,Q1*%
X189228000Y-100974000D02*
X187553000Y-100974000D01*
X189228000Y-97854000D02*
X188578000Y-97854000D01*
X189228000Y-97854000D02*
X189878000Y-97854000D01*
X189228000Y-100974000D02*
X189878000Y-100974000D01*
%TO.C,C4*%
X130863800Y-99814748D02*
X130863800Y-100337252D01*
X129393800Y-99814748D02*
X129393800Y-100337252D01*
%TO.C,C6*%
X146057252Y-103605000D02*
X145534748Y-103605000D01*
X146057252Y-102135000D02*
X145534748Y-102135000D01*
%TO.C,R6*%
X136625000Y-99848936D02*
X136625000Y-100303064D01*
X135155000Y-99848936D02*
X135155000Y-100303064D01*
%TO.C,TP1*%
X134558000Y-95820000D02*
X133158000Y-95820000D01*
X133158000Y-95820000D02*
X133158000Y-97220000D01*
X134558000Y-97220000D02*
X134558000Y-95820000D01*
X133158000Y-97220000D02*
X134558000Y-97220000D01*
%TO.C,U2*%
X168168000Y-100330000D02*
X168168000Y-102280000D01*
X163048000Y-100330000D02*
X163048000Y-96880000D01*
X168168000Y-100330000D02*
X168168000Y-98380000D01*
X163048000Y-100330000D02*
X163048000Y-102280000D01*
%TD*%
M02*
