G04 #@! TF.GenerationSoftware,KiCad,Pcbnew,(6.0.7-1)-1*
G04 #@! TF.CreationDate,2024-09-04T01:05:31+05:30*
G04 #@! TF.ProjectId,voltage_sensor,766f6c74-6167-4655-9f73-656e736f722e,rev?*
G04 #@! TF.SameCoordinates,Original*
G04 #@! TF.FileFunction,Legend,Bot*
G04 #@! TF.FilePolarity,Positive*
%FSLAX46Y46*%
G04 Gerber Fmt 4.6, Leading zero omitted, Abs format (unit mm)*
G04 Created by KiCad (PCBNEW (6.0.7-1)-1) date 2024-09-04 01:05:31*
%MOMM*%
%LPD*%
G01*
G04 APERTURE LIST*
G04 Aperture macros list*
%AMRoundRect*
0 Rectangle with rounded corners*
0 $1 Rounding radius*
0 $2 $3 $4 $5 $6 $7 $8 $9 X,Y pos of 4 corners*
0 Add a 4 corners polygon primitive as box body*
4,1,4,$2,$3,$4,$5,$6,$7,$8,$9,$2,$3,0*
0 Add four circle primitives for the rounded corners*
1,1,$1+$1,$2,$3*
1,1,$1+$1,$4,$5*
1,1,$1+$1,$6,$7*
1,1,$1+$1,$8,$9*
0 Add four rect primitives between the rounded corners*
20,1,$1+$1,$2,$3,$4,$5,0*
20,1,$1+$1,$4,$5,$6,$7,0*
20,1,$1+$1,$6,$7,$8,$9,0*
20,1,$1+$1,$8,$9,$2,$3,0*%
G04 Aperture macros list end*
%ADD10C,0.100000*%
%ADD11R,1.560000X1.560000*%
%ADD12C,1.560000*%
%ADD13RoundRect,0.250000X-0.600000X-0.750000X0.600000X-0.750000X0.600000X0.750000X-0.600000X0.750000X0*%
%ADD14O,1.700000X2.000000*%
%ADD15C,1.600000*%
%ADD16O,1.600000X1.600000*%
%ADD17C,3.200000*%
%ADD18R,1.700000X1.700000*%
%ADD19O,1.700000X1.700000*%
G04 APERTURE END LIST*
D10*
X104927400Y-80751396D02*
X93853000Y-80746600D01*
X104932196Y-63373000D02*
X104927400Y-80751396D01*
X123177990Y-77233733D02*
X123177990Y-77519447D01*
X123677990Y-77376590D02*
X123177990Y-77376590D01*
X123677990Y-77686114D02*
X123177990Y-77686114D01*
X123677990Y-77971828D02*
X123392276Y-77757542D01*
X123177990Y-77971828D02*
X123463704Y-77686114D01*
X123677990Y-78186114D02*
X123177990Y-78186114D01*
X123535133Y-78352780D01*
X123177990Y-78519447D01*
X123677990Y-78519447D01*
X123416085Y-78757542D02*
X123416085Y-78924209D01*
X123677990Y-78995638D02*
X123677990Y-78757542D01*
X123177990Y-78757542D01*
X123177990Y-78995638D01*
X123487514Y-79209923D02*
X123487514Y-79590876D01*
X123225609Y-79805161D02*
X123201800Y-79828971D01*
X123177990Y-79876590D01*
X123177990Y-79995638D01*
X123201800Y-80043257D01*
X123225609Y-80067066D01*
X123273228Y-80090876D01*
X123320847Y-80090876D01*
X123392276Y-80067066D01*
X123677990Y-79781352D01*
X123677990Y-80090876D01*
X123177990Y-80400400D02*
X123177990Y-80448019D01*
X123201800Y-80495638D01*
X123225609Y-80519447D01*
X123273228Y-80543257D01*
X123368466Y-80567066D01*
X123487514Y-80567066D01*
X123582752Y-80543257D01*
X123630371Y-80519447D01*
X123654180Y-80495638D01*
X123677990Y-80448019D01*
X123677990Y-80400400D01*
X123654180Y-80352780D01*
X123630371Y-80328971D01*
X123582752Y-80305161D01*
X123487514Y-80281352D01*
X123368466Y-80281352D01*
X123273228Y-80305161D01*
X123225609Y-80328971D01*
X123201800Y-80352780D01*
X123177990Y-80400400D01*
X123225609Y-80757542D02*
X123201800Y-80781352D01*
X123177990Y-80828971D01*
X123177990Y-80948019D01*
X123201800Y-80995638D01*
X123225609Y-81019447D01*
X123273228Y-81043257D01*
X123320847Y-81043257D01*
X123392276Y-81019447D01*
X123677990Y-80733733D01*
X123677990Y-81043257D01*
X123344657Y-81471828D02*
X123677990Y-81471828D01*
X123154180Y-81352780D02*
X123511323Y-81233733D01*
X123511323Y-81543257D01*
X124482990Y-75281352D02*
X123982990Y-75281352D01*
X124482990Y-75567066D02*
X124197276Y-75352780D01*
X123982990Y-75567066D02*
X124268704Y-75281352D01*
X124459180Y-75971828D02*
X124482990Y-75924209D01*
X124482990Y-75828971D01*
X124459180Y-75781352D01*
X124411561Y-75757542D01*
X124221085Y-75757542D01*
X124173466Y-75781352D01*
X124149657Y-75828971D01*
X124149657Y-75924209D01*
X124173466Y-75971828D01*
X124221085Y-75995638D01*
X124268704Y-75995638D01*
X124316323Y-75757542D01*
X124459180Y-76400400D02*
X124482990Y-76352780D01*
X124482990Y-76257542D01*
X124459180Y-76209923D01*
X124411561Y-76186114D01*
X124221085Y-76186114D01*
X124173466Y-76209923D01*
X124149657Y-76257542D01*
X124149657Y-76352780D01*
X124173466Y-76400400D01*
X124221085Y-76424209D01*
X124268704Y-76424209D01*
X124316323Y-76186114D01*
X124149657Y-76638495D02*
X124649657Y-76638495D01*
X124173466Y-76638495D02*
X124149657Y-76686114D01*
X124149657Y-76781352D01*
X124173466Y-76828971D01*
X124197276Y-76852780D01*
X124244895Y-76876590D01*
X124387752Y-76876590D01*
X124435371Y-76852780D01*
X124459180Y-76828971D01*
X124482990Y-76781352D01*
X124482990Y-76686114D01*
X124459180Y-76638495D01*
X124482990Y-77686114D02*
X124221085Y-77686114D01*
X124173466Y-77662304D01*
X124149657Y-77614685D01*
X124149657Y-77519447D01*
X124173466Y-77471828D01*
X124459180Y-77686114D02*
X124482990Y-77638495D01*
X124482990Y-77519447D01*
X124459180Y-77471828D01*
X124411561Y-77448019D01*
X124363942Y-77448019D01*
X124316323Y-77471828D01*
X124292514Y-77519447D01*
X124292514Y-77638495D01*
X124268704Y-77686114D01*
X124149657Y-77876590D02*
X124482990Y-77971828D01*
X124244895Y-78067066D01*
X124482990Y-78162304D01*
X124149657Y-78257542D01*
X124482990Y-78662304D02*
X124221085Y-78662304D01*
X124173466Y-78638495D01*
X124149657Y-78590876D01*
X124149657Y-78495638D01*
X124173466Y-78448019D01*
X124459180Y-78662304D02*
X124482990Y-78614685D01*
X124482990Y-78495638D01*
X124459180Y-78448019D01*
X124411561Y-78424209D01*
X124363942Y-78424209D01*
X124316323Y-78448019D01*
X124292514Y-78495638D01*
X124292514Y-78614685D01*
X124268704Y-78662304D01*
X124149657Y-78852780D02*
X124482990Y-78971828D01*
X124149657Y-79090876D02*
X124482990Y-78971828D01*
X124602038Y-78924209D01*
X124625847Y-78900400D01*
X124649657Y-78852780D01*
X124149657Y-79590876D02*
X124149657Y-79781352D01*
X124482990Y-79662304D02*
X124054419Y-79662304D01*
X124006800Y-79686114D01*
X123982990Y-79733733D01*
X123982990Y-79781352D01*
X124482990Y-79948019D02*
X124149657Y-79948019D01*
X124244895Y-79948019D02*
X124197276Y-79971828D01*
X124173466Y-79995638D01*
X124149657Y-80043257D01*
X124149657Y-80090876D01*
X124482990Y-80328971D02*
X124459180Y-80281352D01*
X124435371Y-80257542D01*
X124387752Y-80233733D01*
X124244895Y-80233733D01*
X124197276Y-80257542D01*
X124173466Y-80281352D01*
X124149657Y-80328971D01*
X124149657Y-80400400D01*
X124173466Y-80448019D01*
X124197276Y-80471828D01*
X124244895Y-80495638D01*
X124387752Y-80495638D01*
X124435371Y-80471828D01*
X124459180Y-80448019D01*
X124482990Y-80400400D01*
X124482990Y-80328971D01*
X124482990Y-80709923D02*
X124149657Y-80709923D01*
X124197276Y-80709923D02*
X124173466Y-80733733D01*
X124149657Y-80781352D01*
X124149657Y-80852780D01*
X124173466Y-80900400D01*
X124221085Y-80924209D01*
X124482990Y-80924209D01*
X124221085Y-80924209D02*
X124173466Y-80948019D01*
X124149657Y-80995638D01*
X124149657Y-81067066D01*
X124173466Y-81114685D01*
X124221085Y-81138495D01*
X124482990Y-81138495D01*
X124149657Y-81709923D02*
X124482990Y-81805161D01*
X124244895Y-81900400D01*
X124482990Y-81995638D01*
X124149657Y-82090876D01*
X124482990Y-82495638D02*
X124221085Y-82495638D01*
X124173466Y-82471828D01*
X124149657Y-82424209D01*
X124149657Y-82328971D01*
X124173466Y-82281352D01*
X124459180Y-82495638D02*
X124482990Y-82448019D01*
X124482990Y-82328971D01*
X124459180Y-82281352D01*
X124411561Y-82257542D01*
X124363942Y-82257542D01*
X124316323Y-82281352D01*
X124292514Y-82328971D01*
X124292514Y-82448019D01*
X124268704Y-82495638D01*
X124149657Y-82662304D02*
X124149657Y-82852780D01*
X123982990Y-82733733D02*
X124411561Y-82733733D01*
X124459180Y-82757542D01*
X124482990Y-82805161D01*
X124482990Y-82852780D01*
X124459180Y-83209923D02*
X124482990Y-83162304D01*
X124482990Y-83067066D01*
X124459180Y-83019447D01*
X124411561Y-82995638D01*
X124221085Y-82995638D01*
X124173466Y-83019447D01*
X124149657Y-83067066D01*
X124149657Y-83162304D01*
X124173466Y-83209923D01*
X124221085Y-83233733D01*
X124268704Y-83233733D01*
X124316323Y-82995638D01*
X124482990Y-83448019D02*
X124149657Y-83448019D01*
X124244895Y-83448019D02*
X124197276Y-83471828D01*
X124173466Y-83495638D01*
X124149657Y-83543257D01*
X124149657Y-83590876D01*
X125287990Y-77352780D02*
X125026085Y-77352780D01*
X124978466Y-77328971D01*
X124954657Y-77281352D01*
X124954657Y-77186114D01*
X124978466Y-77138495D01*
X125264180Y-77352780D02*
X125287990Y-77305161D01*
X125287990Y-77186114D01*
X125264180Y-77138495D01*
X125216561Y-77114685D01*
X125168942Y-77114685D01*
X125121323Y-77138495D01*
X125097514Y-77186114D01*
X125097514Y-77305161D01*
X125073704Y-77352780D01*
X124954657Y-77590876D02*
X125287990Y-77590876D01*
X125002276Y-77590876D02*
X124978466Y-77614685D01*
X124954657Y-77662304D01*
X124954657Y-77733733D01*
X124978466Y-77781352D01*
X125026085Y-77805161D01*
X125287990Y-77805161D01*
X125287990Y-78257542D02*
X124787990Y-78257542D01*
X125264180Y-78257542D02*
X125287990Y-78209923D01*
X125287990Y-78114685D01*
X125264180Y-78067066D01*
X125240371Y-78043257D01*
X125192752Y-78019447D01*
X125049895Y-78019447D01*
X125002276Y-78043257D01*
X124978466Y-78067066D01*
X124954657Y-78114685D01*
X124954657Y-78209923D01*
X124978466Y-78257542D01*
X125264180Y-79090876D02*
X125287990Y-79043257D01*
X125287990Y-78948019D01*
X125264180Y-78900400D01*
X125240371Y-78876590D01*
X125192752Y-78852780D01*
X125049895Y-78852780D01*
X125002276Y-78876590D01*
X124978466Y-78900400D01*
X124954657Y-78948019D01*
X124954657Y-79043257D01*
X124978466Y-79090876D01*
X125287990Y-79305161D02*
X124787990Y-79305161D01*
X125287990Y-79519447D02*
X125026085Y-79519447D01*
X124978466Y-79495638D01*
X124954657Y-79448019D01*
X124954657Y-79376590D01*
X124978466Y-79328971D01*
X125002276Y-79305161D01*
X125287990Y-79757542D02*
X124954657Y-79757542D01*
X124787990Y-79757542D02*
X124811800Y-79733733D01*
X124835609Y-79757542D01*
X124811800Y-79781352D01*
X124787990Y-79757542D01*
X124835609Y-79757542D01*
X125287990Y-80067066D02*
X125264180Y-80019447D01*
X125216561Y-79995638D01*
X124787990Y-79995638D01*
X125287990Y-80471828D02*
X124787990Y-80471828D01*
X125264180Y-80471828D02*
X125287990Y-80424209D01*
X125287990Y-80328971D01*
X125264180Y-80281352D01*
X125240371Y-80257542D01*
X125192752Y-80233733D01*
X125049895Y-80233733D01*
X125002276Y-80257542D01*
X124978466Y-80281352D01*
X124954657Y-80328971D01*
X124954657Y-80424209D01*
X124978466Y-80471828D01*
X125287990Y-80709923D02*
X124954657Y-80709923D01*
X125049895Y-80709923D02*
X125002276Y-80733733D01*
X124978466Y-80757542D01*
X124954657Y-80805161D01*
X124954657Y-80852780D01*
X125264180Y-81209923D02*
X125287990Y-81162304D01*
X125287990Y-81067066D01*
X125264180Y-81019447D01*
X125216561Y-80995638D01*
X125026085Y-80995638D01*
X124978466Y-81019447D01*
X124954657Y-81067066D01*
X124954657Y-81162304D01*
X124978466Y-81209923D01*
X125026085Y-81233733D01*
X125073704Y-81233733D01*
X125121323Y-80995638D01*
X124954657Y-81448019D02*
X125287990Y-81448019D01*
X125002276Y-81448019D02*
X124978466Y-81471828D01*
X124954657Y-81519447D01*
X124954657Y-81590876D01*
X124978466Y-81638495D01*
X125026085Y-81662304D01*
X125287990Y-81662304D01*
X98219390Y-69436028D02*
X97719390Y-69436028D01*
X98195580Y-69650314D02*
X98219390Y-69697933D01*
X98219390Y-69793171D01*
X98195580Y-69840790D01*
X98147961Y-69864600D01*
X98124152Y-69864600D01*
X98076533Y-69840790D01*
X98052723Y-69793171D01*
X98052723Y-69721742D01*
X98028914Y-69674123D01*
X97981295Y-69650314D01*
X97957485Y-69650314D01*
X97909866Y-69674123D01*
X97886057Y-69721742D01*
X97886057Y-69793171D01*
X97909866Y-69840790D01*
X98219390Y-70150314D02*
X98195580Y-70102695D01*
X98171771Y-70078885D01*
X98124152Y-70055076D01*
X97981295Y-70055076D01*
X97933676Y-70078885D01*
X97909866Y-70102695D01*
X97886057Y-70150314D01*
X97886057Y-70221742D01*
X97909866Y-70269361D01*
X97933676Y-70293171D01*
X97981295Y-70316980D01*
X98124152Y-70316980D01*
X98171771Y-70293171D01*
X98195580Y-70269361D01*
X98219390Y-70221742D01*
X98219390Y-70150314D01*
X98219390Y-70602695D02*
X98195580Y-70555076D01*
X98147961Y-70531266D01*
X97719390Y-70531266D01*
X98219390Y-71007457D02*
X97957485Y-71007457D01*
X97909866Y-70983647D01*
X97886057Y-70936028D01*
X97886057Y-70840790D01*
X97909866Y-70793171D01*
X98195580Y-71007457D02*
X98219390Y-70959838D01*
X98219390Y-70840790D01*
X98195580Y-70793171D01*
X98147961Y-70769361D01*
X98100342Y-70769361D01*
X98052723Y-70793171D01*
X98028914Y-70840790D01*
X98028914Y-70959838D01*
X98005104Y-71007457D01*
X97886057Y-71174123D02*
X97886057Y-71364600D01*
X97719390Y-71245552D02*
X98147961Y-71245552D01*
X98195580Y-71269361D01*
X98219390Y-71316980D01*
X98219390Y-71364600D01*
X98195580Y-71721742D02*
X98219390Y-71674123D01*
X98219390Y-71578885D01*
X98195580Y-71531266D01*
X98147961Y-71507457D01*
X97957485Y-71507457D01*
X97909866Y-71531266D01*
X97886057Y-71578885D01*
X97886057Y-71674123D01*
X97909866Y-71721742D01*
X97957485Y-71745552D01*
X98005104Y-71745552D01*
X98052723Y-71507457D01*
X98219390Y-72174123D02*
X97719390Y-72174123D01*
X98195580Y-72174123D02*
X98219390Y-72126504D01*
X98219390Y-72031266D01*
X98195580Y-71983647D01*
X98171771Y-71959838D01*
X98124152Y-71936028D01*
X97981295Y-71936028D01*
X97933676Y-71959838D01*
X97909866Y-71983647D01*
X97886057Y-72031266D01*
X97886057Y-72126504D01*
X97909866Y-72174123D01*
X98219390Y-73031266D02*
X98219390Y-72793171D01*
X97719390Y-72793171D01*
X97719390Y-73126504D02*
X98219390Y-73293171D01*
X97719390Y-73459838D01*
X98195580Y-73983647D02*
X98219390Y-74031266D01*
X98219390Y-74126504D01*
X98195580Y-74174123D01*
X98147961Y-74197933D01*
X98124152Y-74197933D01*
X98076533Y-74174123D01*
X98052723Y-74126504D01*
X98052723Y-74055076D01*
X98028914Y-74007457D01*
X97981295Y-73983647D01*
X97957485Y-73983647D01*
X97909866Y-74007457D01*
X97886057Y-74055076D01*
X97886057Y-74126504D01*
X97909866Y-74174123D01*
X98219390Y-74412219D02*
X97886057Y-74412219D01*
X97719390Y-74412219D02*
X97743200Y-74388409D01*
X97767009Y-74412219D01*
X97743200Y-74436028D01*
X97719390Y-74412219D01*
X97767009Y-74412219D01*
X98219390Y-74864600D02*
X97719390Y-74864600D01*
X98195580Y-74864600D02*
X98219390Y-74816980D01*
X98219390Y-74721742D01*
X98195580Y-74674123D01*
X98171771Y-74650314D01*
X98124152Y-74626504D01*
X97981295Y-74626504D01*
X97933676Y-74650314D01*
X97909866Y-74674123D01*
X97886057Y-74721742D01*
X97886057Y-74816980D01*
X97909866Y-74864600D01*
X98195580Y-75293171D02*
X98219390Y-75245552D01*
X98219390Y-75150314D01*
X98195580Y-75102695D01*
X98147961Y-75078885D01*
X97957485Y-75078885D01*
X97909866Y-75102695D01*
X97886057Y-75150314D01*
X97886057Y-75245552D01*
X97909866Y-75293171D01*
X97957485Y-75316980D01*
X98005104Y-75316980D01*
X98052723Y-75078885D01*
%LPC*%
D11*
X118745000Y-72161400D03*
D12*
X116245000Y-67161400D03*
X113745000Y-72161400D03*
D13*
X114828000Y-89670400D03*
D14*
X117328000Y-89670400D03*
D15*
X114528600Y-85420200D03*
D16*
X114528600Y-75260200D03*
D17*
X124231400Y-90068400D03*
D18*
X100025200Y-76073000D03*
D19*
X100025200Y-78613000D03*
D17*
X124307600Y-66700400D03*
X97637600Y-89839800D03*
D15*
X117729000Y-75209400D03*
D16*
X117729000Y-82829400D03*
D18*
X100533200Y-65532000D03*
D19*
X103073200Y-65532000D03*
M02*
