G04 #@! TF.GenerationSoftware,KiCad,Pcbnew,(6.0.7-1)-1*
G04 #@! TF.CreationDate,2024-09-04T01:05:31+05:30*
G04 #@! TF.ProjectId,voltage_sensor,766f6c74-6167-4655-9f73-656e736f722e,rev?*
G04 #@! TF.SameCoordinates,Original*
G04 #@! TF.FileFunction,Copper,L2,Bot*
G04 #@! TF.FilePolarity,Positive*
%FSLAX46Y46*%
G04 Gerber Fmt 4.6, Leading zero omitted, Abs format (unit mm)*
G04 Created by KiCad (PCBNEW (6.0.7-1)-1) date 2024-09-04 01:05:31*
%MOMM*%
%LPD*%
G01*
G04 APERTURE LIST*
G04 Aperture macros list*
%AMRoundRect*
0 Rectangle with rounded corners*
0 $1 Rounding radius*
0 $2 $3 $4 $5 $6 $7 $8 $9 X,Y pos of 4 corners*
0 Add a 4 corners polygon primitive as box body*
4,1,4,$2,$3,$4,$5,$6,$7,$8,$9,$2,$3,0*
0 Add four circle primitives for the rounded corners*
1,1,$1+$1,$2,$3*
1,1,$1+$1,$4,$5*
1,1,$1+$1,$6,$7*
1,1,$1+$1,$8,$9*
0 Add four rect primitives between the rounded corners*
20,1,$1+$1,$2,$3,$4,$5,0*
20,1,$1+$1,$4,$5,$6,$7,0*
20,1,$1+$1,$6,$7,$8,$9,0*
20,1,$1+$1,$8,$9,$2,$3,0*%
G04 Aperture macros list end*
G04 #@! TA.AperFunction,ComponentPad*
%ADD10R,1.560000X1.560000*%
G04 #@! TD*
G04 #@! TA.AperFunction,ComponentPad*
%ADD11C,1.560000*%
G04 #@! TD*
G04 #@! TA.AperFunction,ComponentPad*
%ADD12RoundRect,0.250000X-0.600000X-0.750000X0.600000X-0.750000X0.600000X0.750000X-0.600000X0.750000X0*%
G04 #@! TD*
G04 #@! TA.AperFunction,ComponentPad*
%ADD13O,1.700000X2.000000*%
G04 #@! TD*
G04 #@! TA.AperFunction,ComponentPad*
%ADD14C,1.600000*%
G04 #@! TD*
G04 #@! TA.AperFunction,ComponentPad*
%ADD15O,1.600000X1.600000*%
G04 #@! TD*
G04 #@! TA.AperFunction,ComponentPad*
%ADD16R,1.700000X1.700000*%
G04 #@! TD*
G04 #@! TA.AperFunction,ComponentPad*
%ADD17O,1.700000X1.700000*%
G04 #@! TD*
G04 #@! TA.AperFunction,ViaPad*
%ADD18C,0.800000*%
G04 #@! TD*
G04 APERTURE END LIST*
D10*
X118745000Y-72161400D03*
D11*
X116245000Y-67161400D03*
X113745000Y-72161400D03*
D12*
X114828000Y-89670400D03*
D13*
X117328000Y-89670400D03*
D14*
X114528600Y-85420200D03*
D15*
X114528600Y-75260200D03*
D16*
X100025200Y-76073000D03*
D17*
X100025200Y-78613000D03*
D14*
X117729000Y-75209400D03*
D15*
X117729000Y-82829400D03*
D16*
X100533200Y-65532000D03*
D17*
X103073200Y-65532000D03*
D18*
X107340400Y-75412600D03*
X105664000Y-86055200D03*
X107492800Y-89128600D03*
X112039400Y-68808600D03*
X105664000Y-83921600D03*
X110007400Y-67716400D03*
X112039400Y-66700400D03*
X110007400Y-66700400D03*
X110998000Y-66700400D03*
X110998000Y-67716400D03*
X105664000Y-84988400D03*
X112039400Y-67716400D03*
X107492800Y-87477600D03*
X107340400Y-77063600D03*
X99085400Y-71424800D03*
X99923600Y-71424800D03*
X99110800Y-70129400D03*
X99949000Y-70129400D03*
G04 #@! TA.AperFunction,Conductor*
G36*
X104336121Y-64485202D02*
G01*
X104382614Y-64538858D01*
X104394000Y-64591200D01*
X104394000Y-70359000D01*
X104373998Y-70427121D01*
X104320342Y-70473614D01*
X104268000Y-70485000D01*
X98779600Y-70485000D01*
X98711479Y-70464998D01*
X98664986Y-70411342D01*
X98653600Y-70359000D01*
X98653600Y-69849000D01*
X98673602Y-69780879D01*
X98727258Y-69734386D01*
X98779600Y-69723000D01*
X101777800Y-69723000D01*
X101777800Y-66745421D01*
X101797802Y-66677300D01*
X101802974Y-66669856D01*
X101828429Y-66635891D01*
X101833815Y-66628705D01*
X101884945Y-66492316D01*
X101891700Y-66430134D01*
X101891700Y-64633866D01*
X101888543Y-64604807D01*
X101901070Y-64534927D01*
X101949391Y-64482910D01*
X102013806Y-64465200D01*
X104268000Y-64465200D01*
X104336121Y-64485202D01*
G37*
G04 #@! TD.AperFunction*
G04 #@! TA.AperFunction,Conductor*
G36*
X104336121Y-71089202D02*
G01*
X104382614Y-71142858D01*
X104394000Y-71195200D01*
X104394000Y-79706200D01*
X104373998Y-79774321D01*
X104320342Y-79820814D01*
X104268000Y-79832200D01*
X98906600Y-79832200D01*
X98838479Y-79812198D01*
X98791986Y-79758542D01*
X98780600Y-79706200D01*
X98780600Y-77519800D01*
X98800602Y-77451679D01*
X98854258Y-77405186D01*
X98906600Y-77393800D01*
X98959497Y-77393800D01*
X99003726Y-77401818D01*
X99057489Y-77421973D01*
X99057491Y-77421973D01*
X99064884Y-77424745D01*
X99072732Y-77425598D01*
X99072734Y-77425598D01*
X99123669Y-77431131D01*
X99127066Y-77431500D01*
X100923334Y-77431500D01*
X100926731Y-77431131D01*
X100977666Y-77425598D01*
X100977668Y-77425598D01*
X100985516Y-77424745D01*
X100992909Y-77421973D01*
X100992911Y-77421973D01*
X101046674Y-77401818D01*
X101090903Y-77393800D01*
X101295200Y-77393800D01*
X101295200Y-77252531D01*
X101315202Y-77184410D01*
X101320373Y-77176967D01*
X101320433Y-77176887D01*
X101320435Y-77176884D01*
X101325815Y-77169705D01*
X101376945Y-77033316D01*
X101383700Y-76971134D01*
X101383700Y-75174866D01*
X101376945Y-75112684D01*
X101325815Y-74976295D01*
X101320435Y-74969116D01*
X101320433Y-74969113D01*
X101320373Y-74969033D01*
X101320338Y-74968940D01*
X101316121Y-74961237D01*
X101317233Y-74960628D01*
X101295526Y-74902527D01*
X101295200Y-74893469D01*
X101295200Y-71882000D01*
X98779600Y-71882000D01*
X98711479Y-71861998D01*
X98664986Y-71808342D01*
X98653600Y-71756000D01*
X98653600Y-71195200D01*
X98673602Y-71127079D01*
X98727258Y-71080586D01*
X98779600Y-71069200D01*
X104268000Y-71069200D01*
X104336121Y-71089202D01*
G37*
G04 #@! TD.AperFunction*
G04 #@! TA.AperFunction,Conductor*
G36*
X121667021Y-63758332D02*
G01*
X121735137Y-63778345D01*
X121781622Y-63832008D01*
X121793000Y-63884332D01*
X121793000Y-69291200D01*
X127022161Y-69291200D01*
X127090282Y-69311202D01*
X127136775Y-69364858D01*
X127148161Y-69417176D01*
X127149492Y-76770652D01*
X127151385Y-87224577D01*
X127131395Y-87292702D01*
X127077748Y-87339204D01*
X127025385Y-87350600D01*
X121640600Y-87350600D01*
X121640600Y-92883240D01*
X121620598Y-92951361D01*
X121566942Y-92997854D01*
X121514364Y-93009240D01*
X113020977Y-92993274D01*
X101344763Y-92971326D01*
X101276680Y-92951196D01*
X101230288Y-92897453D01*
X101219000Y-92845326D01*
X101219000Y-91236800D01*
X113106200Y-91236800D01*
X116128800Y-91236800D01*
X116128800Y-90737303D01*
X116135207Y-90697636D01*
X116173632Y-90581788D01*
X116175797Y-90575261D01*
X116186500Y-90470800D01*
X116186500Y-88870000D01*
X116175526Y-88764234D01*
X116173345Y-88757698D01*
X116173343Y-88757687D01*
X116135277Y-88643591D01*
X116128800Y-88603715D01*
X116128800Y-84454000D01*
X116148802Y-84385879D01*
X116202458Y-84339386D01*
X116254800Y-84328000D01*
X119049800Y-84328000D01*
X119049800Y-81483200D01*
X113106200Y-81483200D01*
X113106200Y-91236800D01*
X101219000Y-91236800D01*
X101219000Y-87376000D01*
X94366531Y-87376000D01*
X94298410Y-87355998D01*
X94251917Y-87302342D01*
X94240531Y-87249725D01*
X94253319Y-81380325D01*
X94273470Y-81312248D01*
X94327227Y-81265873D01*
X94379319Y-81254600D01*
X105689400Y-81254600D01*
X105689400Y-76784200D01*
X112141000Y-76784200D01*
X120421400Y-76784200D01*
X120421400Y-70662800D01*
X112141000Y-70662800D01*
X112141000Y-76784200D01*
X105689400Y-76784200D01*
X105689400Y-63881846D01*
X105709402Y-63813725D01*
X105763058Y-63767232D01*
X105815420Y-63755846D01*
X121667021Y-63758332D01*
G37*
G04 #@! TD.AperFunction*
M02*
