G04 #@! TF.GenerationSoftware,KiCad,Pcbnew,(6.0.7-1)-1*
G04 #@! TF.CreationDate,2024-09-04T01:05:31+05:30*
G04 #@! TF.ProjectId,voltage_sensor,766f6c74-6167-4655-9f73-656e736f722e,rev?*
G04 #@! TF.SameCoordinates,Original*
G04 #@! TF.FileFunction,Copper,L1,Top*
G04 #@! TF.FilePolarity,Positive*
%FSLAX46Y46*%
G04 Gerber Fmt 4.6, Leading zero omitted, Abs format (unit mm)*
G04 Created by KiCad (PCBNEW (6.0.7-1)-1) date 2024-09-04 01:05:31*
%MOMM*%
%LPD*%
G01*
G04 APERTURE LIST*
G04 Aperture macros list*
%AMRoundRect*
0 Rectangle with rounded corners*
0 $1 Rounding radius*
0 $2 $3 $4 $5 $6 $7 $8 $9 X,Y pos of 4 corners*
0 Add a 4 corners polygon primitive as box body*
4,1,4,$2,$3,$4,$5,$6,$7,$8,$9,$2,$3,0*
0 Add four circle primitives for the rounded corners*
1,1,$1+$1,$2,$3*
1,1,$1+$1,$4,$5*
1,1,$1+$1,$6,$7*
1,1,$1+$1,$8,$9*
0 Add four rect primitives between the rounded corners*
20,1,$1+$1,$2,$3,$4,$5,0*
20,1,$1+$1,$4,$5,$6,$7,0*
20,1,$1+$1,$6,$7,$8,$9,0*
20,1,$1+$1,$8,$9,$2,$3,0*%
G04 Aperture macros list end*
G04 #@! TA.AperFunction,ComponentPad*
%ADD10R,1.560000X1.560000*%
G04 #@! TD*
G04 #@! TA.AperFunction,ComponentPad*
%ADD11C,1.560000*%
G04 #@! TD*
G04 #@! TA.AperFunction,ComponentPad*
%ADD12RoundRect,0.250000X-0.600000X-0.750000X0.600000X-0.750000X0.600000X0.750000X-0.600000X0.750000X0*%
G04 #@! TD*
G04 #@! TA.AperFunction,ComponentPad*
%ADD13O,1.700000X2.000000*%
G04 #@! TD*
G04 #@! TA.AperFunction,ComponentPad*
%ADD14C,1.600000*%
G04 #@! TD*
G04 #@! TA.AperFunction,ComponentPad*
%ADD15O,1.600000X1.600000*%
G04 #@! TD*
G04 #@! TA.AperFunction,SMDPad,CuDef*
%ADD16RoundRect,0.250000X0.412500X1.100000X-0.412500X1.100000X-0.412500X-1.100000X0.412500X-1.100000X0*%
G04 #@! TD*
G04 #@! TA.AperFunction,SMDPad,CuDef*
%ADD17RoundRect,0.250000X1.100000X-0.412500X1.100000X0.412500X-1.100000X0.412500X-1.100000X-0.412500X0*%
G04 #@! TD*
G04 #@! TA.AperFunction,SMDPad,CuDef*
%ADD18R,0.558800X1.981200*%
G04 #@! TD*
G04 #@! TA.AperFunction,SMDPad,CuDef*
%ADD19R,2.311400X2.311400*%
G04 #@! TD*
G04 #@! TA.AperFunction,ComponentPad*
%ADD20R,1.700000X1.700000*%
G04 #@! TD*
G04 #@! TA.AperFunction,ComponentPad*
%ADD21O,1.700000X1.700000*%
G04 #@! TD*
G04 #@! TA.AperFunction,SMDPad,CuDef*
%ADD22R,1.701800X0.558800*%
G04 #@! TD*
G04 #@! TA.AperFunction,ViaPad*
%ADD23C,0.800000*%
G04 #@! TD*
G04 #@! TA.AperFunction,Conductor*
%ADD24C,0.500000*%
G04 #@! TD*
G04 APERTURE END LIST*
D10*
X118745000Y-72161400D03*
D11*
X116245000Y-67161400D03*
X113745000Y-72161400D03*
D12*
X114828000Y-89670400D03*
D13*
X117328000Y-89670400D03*
D14*
X114528600Y-85420200D03*
D15*
X114528600Y-75260200D03*
D16*
X110490000Y-76276200D03*
X107365000Y-76276200D03*
D17*
X96418400Y-72326900D03*
X96418400Y-69201900D03*
D18*
X110896400Y-79806800D03*
X109626400Y-79806800D03*
X108356400Y-79806800D03*
X107086400Y-79806800D03*
X107086400Y-84734400D03*
X108356400Y-84734400D03*
X109626400Y-84734400D03*
X110896400Y-84734400D03*
D19*
X108991400Y-82270600D03*
D20*
X100025200Y-76073000D03*
D21*
X100025200Y-78613000D03*
D22*
X110286800Y-72669400D03*
X110286800Y-71399400D03*
X110286800Y-70129400D03*
X110286800Y-68859400D03*
X99517200Y-68859400D03*
X99517200Y-70129400D03*
X99517200Y-71399400D03*
X99517200Y-72669400D03*
D14*
X117729000Y-75209400D03*
D15*
X117729000Y-82829400D03*
D16*
X110617000Y-88290400D03*
X107492000Y-88290400D03*
D20*
X100533200Y-65532000D03*
D21*
X103073200Y-65532000D03*
D23*
X107340400Y-75412600D03*
X105664000Y-86055200D03*
X107492800Y-89128600D03*
X112039400Y-68808600D03*
X105664000Y-83921600D03*
X110007400Y-67716400D03*
X112039400Y-66700400D03*
X110007400Y-66700400D03*
X110998000Y-66700400D03*
X110998000Y-67716400D03*
X105664000Y-84988400D03*
X112039400Y-67716400D03*
X107492800Y-87477600D03*
X107340400Y-77063600D03*
X99085400Y-71424800D03*
X99923600Y-71424800D03*
X99110800Y-70129400D03*
X99949000Y-70129400D03*
D24*
X117348000Y-70764400D02*
X118745000Y-72161400D01*
X119888000Y-73304400D02*
X118745000Y-72161400D01*
X112522000Y-70764400D02*
X117348000Y-70764400D01*
X117729000Y-82829400D02*
X119888000Y-80670400D01*
X110286800Y-71399400D02*
X111887000Y-71399400D01*
X111887000Y-71399400D02*
X112522000Y-70764400D01*
X119888000Y-80670400D02*
X119888000Y-73304400D01*
G04 #@! TA.AperFunction,Conductor*
G36*
X121996200Y-92883908D02*
G01*
X121976198Y-92952029D01*
X121922542Y-92998522D01*
X121869964Y-93009908D01*
X118226274Y-93003059D01*
X116584763Y-92999973D01*
X116516680Y-92979843D01*
X116470288Y-92926100D01*
X116459000Y-92873973D01*
X116459000Y-86892400D01*
X116479002Y-86824279D01*
X116532658Y-86777786D01*
X116585000Y-86766400D01*
X120523000Y-86766400D01*
X120523000Y-81129700D01*
X120539266Y-81072401D01*
X120537734Y-81071684D01*
X120568655Y-81005525D01*
X120570561Y-81001625D01*
X120603769Y-80936592D01*
X120605508Y-80929484D01*
X120607607Y-80923841D01*
X120609524Y-80918078D01*
X120612622Y-80911450D01*
X120627487Y-80839983D01*
X120628457Y-80835699D01*
X120644473Y-80770245D01*
X120645808Y-80764790D01*
X120646500Y-80753636D01*
X120646536Y-80753638D01*
X120646775Y-80749645D01*
X120647149Y-80745453D01*
X120648640Y-80738285D01*
X120646546Y-80660879D01*
X120646500Y-80657472D01*
X120646500Y-73371470D01*
X120647933Y-73352520D01*
X120650099Y-73338285D01*
X120650099Y-73338281D01*
X120651199Y-73331051D01*
X120649655Y-73312061D01*
X120646915Y-73278382D01*
X120646500Y-73268167D01*
X120646500Y-73260107D01*
X120643211Y-73231893D01*
X120642778Y-73227518D01*
X120637454Y-73162061D01*
X120637453Y-73162058D01*
X120636860Y-73154763D01*
X120634604Y-73147799D01*
X120633413Y-73141840D01*
X120632029Y-73135985D01*
X120631182Y-73128719D01*
X120606265Y-73060073D01*
X120604848Y-73055945D01*
X120584607Y-72993464D01*
X120584606Y-72993462D01*
X120582351Y-72986501D01*
X120578555Y-72980246D01*
X120576049Y-72974772D01*
X120573330Y-72969343D01*
X120570833Y-72962463D01*
X120543627Y-72920968D01*
X120523000Y-72851884D01*
X120523000Y-69367400D01*
X112522000Y-69367400D01*
X112518998Y-69371153D01*
X112514586Y-69376668D01*
X111543830Y-70590112D01*
X111485657Y-70630810D01*
X111445441Y-70637400D01*
X111321927Y-70637400D01*
X111277697Y-70629382D01*
X111248016Y-70618255D01*
X111185834Y-70611500D01*
X109549200Y-70611500D01*
X109481079Y-70591498D01*
X109434586Y-70537842D01*
X109423200Y-70485500D01*
X109423200Y-68351400D01*
X111506000Y-68351400D01*
X111506000Y-67843400D01*
X112522000Y-66192400D01*
X121996200Y-66192400D01*
X121996200Y-92883908D01*
G37*
G04 #@! TD.AperFunction*
G04 #@! TA.AperFunction,Conductor*
G36*
X115613721Y-84271802D02*
G01*
X115660214Y-84325458D01*
X115671600Y-84377800D01*
X115671600Y-90552000D01*
X115651598Y-90620121D01*
X115597942Y-90666614D01*
X115545600Y-90678000D01*
X113982393Y-90678000D01*
X113957454Y-90675507D01*
X113920277Y-90668000D01*
X113612356Y-90605824D01*
X111330727Y-90145110D01*
X111330717Y-90145108D01*
X111328200Y-90144600D01*
X110057200Y-90144600D01*
X109989079Y-90124598D01*
X109942586Y-90070942D01*
X109931200Y-90018600D01*
X109931200Y-86968600D01*
X109951202Y-86900479D01*
X110004858Y-86853986D01*
X110057200Y-86842600D01*
X110617000Y-86842600D01*
X110617000Y-84251800D01*
X115545600Y-84251800D01*
X115613721Y-84271802D01*
G37*
G04 #@! TD.AperFunction*
G04 #@! TA.AperFunction,Conductor*
G36*
X111854521Y-72308402D02*
G01*
X111901014Y-72362058D01*
X111912400Y-72414400D01*
X111912400Y-80671400D01*
X111892398Y-80739521D01*
X111838742Y-80786014D01*
X111786400Y-80797400D01*
X110606513Y-80797400D01*
X110538392Y-80777398D01*
X110517418Y-80760495D01*
X110515742Y-80758819D01*
X110510361Y-80751639D01*
X110393805Y-80664285D01*
X110257416Y-80613155D01*
X110195234Y-80606400D01*
X109473000Y-80606400D01*
X109404879Y-80586398D01*
X109358386Y-80532742D01*
X109347000Y-80480400D01*
X109347000Y-72414400D01*
X109367002Y-72346279D01*
X109420658Y-72299786D01*
X109473000Y-72288400D01*
X111786400Y-72288400D01*
X111854521Y-72308402D01*
G37*
G04 #@! TD.AperFunction*
G04 #@! TA.AperFunction,Conductor*
G36*
X108585000Y-92984936D02*
G01*
X101344763Y-92971326D01*
X101276680Y-92951196D01*
X101230288Y-92897453D01*
X101219000Y-92845326D01*
X101219000Y-86410800D01*
X108585000Y-86410800D01*
X108585000Y-92984936D01*
G37*
G04 #@! TD.AperFunction*
G04 #@! TA.AperFunction,Conductor*
G36*
X107993721Y-74721402D02*
G01*
X108040214Y-74775058D01*
X108051600Y-74827400D01*
X108051600Y-77725000D01*
X108031598Y-77793121D01*
X107977942Y-77839614D01*
X107925600Y-77851000D01*
X106502200Y-77851000D01*
X106502200Y-78346098D01*
X106482198Y-78414219D01*
X106457173Y-78441112D01*
X106457269Y-78441208D01*
X106454604Y-78443873D01*
X106451765Y-78446924D01*
X106443739Y-78452939D01*
X106356385Y-78569495D01*
X106305255Y-78705884D01*
X106298500Y-78768066D01*
X106298500Y-80845534D01*
X106305255Y-80907716D01*
X106356385Y-81044105D01*
X106443739Y-81160661D01*
X106451765Y-81166676D01*
X106452392Y-81167515D01*
X106457269Y-81172392D01*
X106456565Y-81173096D01*
X106494280Y-81223534D01*
X106502200Y-81267502D01*
X106502200Y-81737200D01*
X102006400Y-81737200D01*
X102006400Y-74827400D01*
X102026402Y-74759279D01*
X102080058Y-74712786D01*
X102132400Y-74701400D01*
X107925600Y-74701400D01*
X107993721Y-74721402D01*
G37*
G04 #@! TD.AperFunction*
G04 #@! TA.AperFunction,Conductor*
G36*
X97706721Y-71673402D02*
G01*
X97753214Y-71727058D01*
X97764600Y-71779400D01*
X97764600Y-72390000D01*
X100254800Y-72390000D01*
X100322921Y-72410002D01*
X100369414Y-72463658D01*
X100380800Y-72516000D01*
X100380800Y-75133200D01*
X100813600Y-75133200D01*
X100881721Y-75153202D01*
X100928214Y-75206858D01*
X100939600Y-75259200D01*
X100939600Y-76861400D01*
X100919598Y-76929521D01*
X100865942Y-76976014D01*
X100813600Y-76987400D01*
X94389164Y-76987400D01*
X94321043Y-76967398D01*
X94274550Y-76913742D01*
X94263164Y-76861125D01*
X94273362Y-72180545D01*
X94274236Y-71779125D01*
X94294387Y-71711048D01*
X94348144Y-71664673D01*
X94400236Y-71653400D01*
X97638600Y-71653400D01*
X97706721Y-71673402D01*
G37*
G04 #@! TD.AperFunction*
G04 #@! TA.AperFunction,Conductor*
G36*
X106755794Y-81305566D02*
G01*
X106758866Y-81305900D01*
X107413934Y-81305900D01*
X107417006Y-81305566D01*
X107423165Y-81305400D01*
X108019635Y-81305400D01*
X108025794Y-81305566D01*
X108028866Y-81305900D01*
X108683934Y-81305900D01*
X108687006Y-81305566D01*
X108693165Y-81305400D01*
X109289635Y-81305400D01*
X109295794Y-81305566D01*
X109298866Y-81305900D01*
X109953934Y-81305900D01*
X109957006Y-81305566D01*
X109963165Y-81305400D01*
X110110000Y-81305400D01*
X110178121Y-81325402D01*
X110224614Y-81379058D01*
X110236000Y-81431400D01*
X110236000Y-83338400D01*
X110215998Y-83406521D01*
X110162342Y-83453014D01*
X110110000Y-83464400D01*
X109982000Y-83464400D01*
X109982000Y-85878400D01*
X109961998Y-85946521D01*
X109908342Y-85993014D01*
X109856000Y-86004400D01*
X108585000Y-86004400D01*
X108585000Y-91465400D01*
X116459000Y-91465400D01*
X116459000Y-88163400D01*
X118237000Y-88163400D01*
X118237000Y-92989400D01*
X110959845Y-92989400D01*
X106680000Y-92981355D01*
X106680000Y-81305400D01*
X106749635Y-81305400D01*
X106755794Y-81305566D01*
G37*
G04 #@! TD.AperFunction*
G04 #@! TA.AperFunction,Conductor*
G36*
X106755794Y-81305566D02*
G01*
X106758866Y-81305900D01*
X107413934Y-81305900D01*
X107417006Y-81305566D01*
X107423165Y-81305400D01*
X107924600Y-81305400D01*
X107924600Y-86766400D01*
X94367859Y-86766400D01*
X94299738Y-86746398D01*
X94253245Y-86692742D01*
X94241859Y-86640125D01*
X94253208Y-81431125D01*
X94273359Y-81363048D01*
X94327116Y-81316673D01*
X94379208Y-81305400D01*
X106749635Y-81305400D01*
X106755794Y-81305566D01*
G37*
G04 #@! TD.AperFunction*
G04 #@! TA.AperFunction,Conductor*
G36*
X119071621Y-73654602D02*
G01*
X119118114Y-73708258D01*
X119129500Y-73760600D01*
X119129500Y-76353400D01*
X119109498Y-76421521D01*
X119055842Y-76468014D01*
X119003500Y-76479400D01*
X112978200Y-76479400D01*
X112910079Y-76459398D01*
X112863586Y-76405742D01*
X112852200Y-76353400D01*
X112852200Y-73760600D01*
X112872202Y-73692479D01*
X112925858Y-73645986D01*
X112978200Y-73634600D01*
X119003500Y-73634600D01*
X119071621Y-73654602D01*
G37*
G04 #@! TD.AperFunction*
G04 #@! TA.AperFunction,Conductor*
G36*
X127090282Y-69311202D02*
G01*
X127136775Y-69364858D01*
X127148161Y-69417177D01*
X127151381Y-87199177D01*
X127131391Y-87267302D01*
X127077744Y-87313804D01*
X127025381Y-87325200D01*
X121564400Y-87325200D01*
X121564400Y-69291200D01*
X127022161Y-69291200D01*
X127090282Y-69311202D01*
G37*
G04 #@! TD.AperFunction*
G04 #@! TA.AperFunction,Conductor*
G36*
X111270321Y-83814602D02*
G01*
X111316814Y-83868258D01*
X111328200Y-83920600D01*
X111328200Y-89636600D01*
X109931200Y-89636600D01*
X109931200Y-86968600D01*
X109951202Y-86900479D01*
X110004858Y-86853986D01*
X110057200Y-86842600D01*
X110617000Y-86842600D01*
X110617000Y-83920600D01*
X110637002Y-83852479D01*
X110690658Y-83805986D01*
X110743000Y-83794600D01*
X111202200Y-83794600D01*
X111270321Y-83814602D01*
G37*
G04 #@! TD.AperFunction*
G04 #@! TA.AperFunction,Conductor*
G36*
X121870222Y-63758365D02*
G01*
X121938337Y-63778377D01*
X121984822Y-63832040D01*
X121996200Y-63884364D01*
X121996200Y-68580000D01*
X109423200Y-68580000D01*
X109423200Y-63882432D01*
X109443202Y-63814311D01*
X109496858Y-63767818D01*
X109549219Y-63756432D01*
X121870222Y-63758365D01*
G37*
G04 #@! TD.AperFunction*
G04 #@! TA.AperFunction,Conductor*
G36*
X101347021Y-63755145D02*
G01*
X101415137Y-63775158D01*
X101461622Y-63828821D01*
X101473000Y-63881145D01*
X101473000Y-66320400D01*
X101452998Y-66388521D01*
X101399342Y-66435014D01*
X101347000Y-66446400D01*
X100380800Y-66446400D01*
X100380800Y-69038200D01*
X100360798Y-69106321D01*
X100307142Y-69152814D01*
X100254800Y-69164200D01*
X97942400Y-69164200D01*
X97942400Y-69774800D01*
X97922398Y-69842921D01*
X97868742Y-69889414D01*
X97816400Y-69900800D01*
X94404604Y-69900800D01*
X94336483Y-69880798D01*
X94289990Y-69827142D01*
X94278604Y-69774526D01*
X94285184Y-66754063D01*
X94286929Y-66733440D01*
X94290376Y-66712952D01*
X94290529Y-66700400D01*
X94289840Y-66695590D01*
X94289839Y-66695572D01*
X94288551Y-66686581D01*
X94287476Y-66661654D01*
X94299564Y-66446400D01*
X94303426Y-66377625D01*
X94305008Y-66363588D01*
X94309975Y-66334359D01*
X94357975Y-66051852D01*
X94361119Y-66038077D01*
X94448656Y-65734229D01*
X94453323Y-65720892D01*
X94574328Y-65428759D01*
X94580459Y-65416028D01*
X94733411Y-65139283D01*
X94740928Y-65127319D01*
X94923910Y-64869430D01*
X94932720Y-64858383D01*
X95143419Y-64622610D01*
X95153410Y-64612619D01*
X95389183Y-64401920D01*
X95400230Y-64393110D01*
X95658119Y-64210128D01*
X95670083Y-64202611D01*
X95829296Y-64114617D01*
X95946832Y-64049657D01*
X95959555Y-64043530D01*
X96071339Y-63997228D01*
X96251692Y-63922523D01*
X96265029Y-63917856D01*
X96568877Y-63830319D01*
X96582652Y-63827175D01*
X96738520Y-63800691D01*
X96894393Y-63774207D01*
X96908427Y-63772626D01*
X96979808Y-63768618D01*
X97188794Y-63756882D01*
X97215238Y-63758183D01*
X97216051Y-63758310D01*
X97216055Y-63758310D01*
X97224924Y-63759691D01*
X97256440Y-63755569D01*
X97272788Y-63754506D01*
X101347021Y-63755145D01*
G37*
G04 #@! TD.AperFunction*
M02*
